<svg width="32" height="32" viewBox="0 0 32 32" fill="none" xmlns="http://www.w3.org/2000/svg">
<path d="M16 30.6673C7.86671 30.6673 1.33337 24.134 1.33337 16.0007C1.33337 7.86732 7.86671 1.33398 16 1.33398C24.1334 1.33398 30.6667 7.86732 30.6667 16.0007C30.6667 24.134 24.1334 30.6673 16 30.6673ZM16 4.00065C9.33337 4.00065 4.00004 9.33398 4.00004 16.0007C4.00004 22.6673 9.33337 28.0006 16 28.0006C22.6667 28.0006 28 22.6673 28 16.0007C28 9.33398 22.6667 4.00065 16 4.00065Z" fill="#FF2727"/>
<path d="M16 17.334C15.2 17.334 14.6667 16.8007 14.6667 16.0007V10.6673C14.6667 9.86732 15.2 9.33398 16 9.33398C16.8 9.33398 17.3334 9.86732 17.3334 10.6673V16.0007C17.3334 16.8007 16.8 17.334 16 17.334Z" fill="#FF2727"/>
<path d="M16 22.6673C15.6 22.6673 15.3334 22.534 15.0667 22.2673C14.8 22.0007 14.6667 21.734 14.6667 21.334C14.6667 21.2006 14.6667 20.934 14.8 20.8006C14.9334 20.6673 14.9334 20.534 15.0667 20.4007C15.4667 20.0007 16 19.8673 16.5334 20.134C16.6667 20.134 16.6667 20.134 16.8 20.2673C16.8 20.2673 16.9334 20.4007 17.0667 20.4007C17.2 20.534 17.3334 20.6673 17.3334 20.8006C17.3334 20.934 17.3334 21.2006 17.3334 21.334C17.3334 21.4673 17.3334 21.734 17.2 21.8673C17.0667 22.0006 17.0667 22.134 16.9334 22.2673C16.6667 22.534 16.4 22.6673 16 22.6673Z" fill="#FF2727"/>
</svg>
