<svg width="16" height="17" viewBox="0 0 16 17" fill="none" xmlns="http://www.w3.org/2000/svg">
<path fill-rule="evenodd" clip-rule="evenodd" d="M8.00016 3.16675C8.36835 3.16675 8.66683 3.46522 8.66683 3.83341V13.1667C8.66683 13.5349 8.36835 13.8334 8.00016 13.8334C7.63197 13.8334 7.3335 13.5349 7.3335 13.1667V3.83341C7.3335 3.46522 7.63197 3.16675 8.00016 3.16675Z" fill="#1AA6EE"/>
<path fill-rule="evenodd" clip-rule="evenodd" d="M2.86177 8.02851C3.12212 7.76816 3.54423 7.76816 3.80458 8.02851L7.99984 12.2238L12.1951 8.02851C12.4554 7.76816 12.8776 7.76816 13.1379 8.02851C13.3983 8.28886 13.3983 8.71097 13.1379 8.97132L8.47124 13.638C8.21089 13.8983 7.78878 13.8983 7.52843 13.638L2.86177 8.97132C2.60142 8.71097 2.60142 8.28886 2.86177 8.02851Z" fill="#1AA6EE"/>
</svg>
