<svg width="32" height="32" viewBox="0 0 32 32" fill="none" xmlns="http://www.w3.org/2000/svg">
<path fill-rule="evenodd" clip-rule="evenodd" d="M2.59374 9.90001C2.59374 9.53126 2.89536 9.2297 3.26405 9.2297H7.95624V14.5922H2.59374V9.90001ZM9.29687 9.2297H14.6594V14.5922H9.29687V9.2297ZM16 9.2297H21.3625V14.5922H16V9.2297ZM22.7031 9.2297H27.1607C27.7975 9.2297 28.3673 9.69883 28.4678 10.3355L29.2387 15.0949C29.3057 15.5977 29.3728 16.1004 29.3728 16.6031H24.7141L22.7031 14.5922V9.2297ZM1.25311 9.2297V21.2953C1.25311 22.0326 1.85639 22.6359 2.59374 22.6359H2.66077C2.62728 22.4348 2.59374 22.2002 2.59374 21.9656C2.59374 20.1223 4.10196 18.6141 5.9453 18.6141C7.78868 18.6141 9.29687 20.1223 9.29687 21.9656C9.29687 22.2002 9.26337 22.4348 9.22984 22.6359H21.4295C21.396 22.4348 21.3625 22.2002 21.3625 21.9656C21.3625 20.1223 22.8707 18.6141 24.7141 18.6141C26.5574 18.6141 28.0656 20.1223 28.0656 21.9656C28.0656 22.2002 28.0321 22.4348 27.9986 22.6359H29.4063C30.1436 22.6359 30.7469 22.0326 30.7469 21.2953V17.0053C30.7469 16.3014 30.6798 15.5641 30.5793 14.8601L29.8084 10.0676C29.5738 8.79395 28.4678 7.85547 27.1607 7.85547H2.59374C1.85639 7.88907 1.25311 8.49218 1.25311 9.2297V9.2297Z" fill="#0C1132"/>
<path fill-rule="evenodd" clip-rule="evenodd" d="M27.0602 21.9652C27.0602 23.2609 26.0098 24.3113 24.7141 24.3113C23.4183 24.3113 22.368 23.2609 22.368 21.9652C22.368 20.6696 23.4183 19.6191 24.7141 19.6191C26.0098 19.6191 27.0602 20.6696 27.0602 21.9652Z" fill="#0C1132"/>
<path fill-rule="evenodd" clip-rule="evenodd" d="M8.2914 21.9652C8.2914 23.2609 7.24104 24.3113 5.94531 24.3113C4.64957 24.3113 3.59921 23.2609 3.59921 21.9652C3.59921 20.6696 4.64957 19.6191 5.94531 19.6191C7.24104 19.6191 8.2914 20.6696 8.2914 21.9652Z" fill="#0C1132"/>
</svg>
