<svg width="16" height="16" viewBox="0 0 16 16" fill="none" xmlns="http://www.w3.org/2000/svg">
<path fill-rule="evenodd" clip-rule="evenodd" d="M7.99984 2.00033C4.68613 2.00033 1.99984 4.68662 1.99984 8.00033C1.99984 11.314 4.68613 14.0003 7.99984 14.0003C11.3135 14.0003 13.9998 11.314 13.9998 8.00033C13.9998 4.68662 11.3135 2.00033 7.99984 2.00033ZM0.666504 8.00033C0.666504 3.95024 3.94975 0.666992 7.99984 0.666992C12.0499 0.666992 15.3332 3.95024 15.3332 8.00033C15.3332 12.0504 12.0499 15.3337 7.99984 15.3337C3.94975 15.3337 0.666504 12.0504 0.666504 8.00033Z" fill="#45485E"/>
<path fill-rule="evenodd" clip-rule="evenodd" d="M7.99984 3.33366C8.36803 3.33366 8.6665 3.63214 8.6665 4.00033V7.5883L10.9646 8.73737C11.294 8.90203 11.4274 9.30248 11.2628 9.6318C11.0981 9.96112 10.6977 10.0946 10.3684 9.92994L7.70169 8.59661C7.47584 8.48368 7.33317 8.25284 7.33317 8.00033V4.00033C7.33317 3.63214 7.63165 3.33366 7.99984 3.33366Z" fill="#45485E"/>
</svg>
