<svg width="124" height="108" viewBox="0 0 124 108" fill="none" xmlns="http://www.w3.org/2000/svg">
<path fill-rule="evenodd" clip-rule="evenodd" d="M71.0009 91.4356H16.3313C12.4833 91.4356 9.33362 88.2959 9.33362 84.4587V6.97527C9.33362 3.13809 12.4833 0 16.3313 0H71.0009C74.8504 0 78.0001 3.13809 78.0001 6.97527V84.4587C78.0001 88.2959 74.8504 91.4356 71.0009 91.4356Z" fill="#E0E2EE"/>
<path fill-rule="evenodd" clip-rule="evenodd" d="M66.3343 94.7486H11.6646C7.81672 94.7486 4.66699 91.6089 4.66699 87.7717V10.2883C4.66699 6.45108 7.81672 3.31299 11.6646 3.31299H66.3343C70.1838 3.31299 73.3335 6.45108 73.3335 10.2883V87.7717C73.3335 91.6089 70.1838 94.7486 66.3343 94.7486Z" fill="#E8EBF2"/>
<path fill-rule="evenodd" clip-rule="evenodd" d="M61.7947 97.3636H7.0121C3.15623 97.3636 0 94.237 0 90.4157V13.253C0 9.43173 3.15623 6.30664 7.0121 6.30664H61.7947C65.6522 6.30664 68.8084 9.43173 68.8084 13.253V90.4157C68.8084 94.237 65.6522 97.3636 61.7947 97.3636Z" fill="#D8DBEA"/>
<path fill-rule="evenodd" clip-rule="evenodd" d="M61.7947 97.3636H7.0121C3.15623 97.3636 0 94.237 0 90.4157V13.253C0 9.43173 3.15623 6.30664 7.0121 6.30664H61.7947C65.6522 6.30664 68.8084 9.43173 68.8084 13.253V90.4157C68.8084 94.237 65.6522 97.3636 61.7947 97.3636Z" fill="#F1F2F7"/>
<path fill-rule="evenodd" clip-rule="evenodd" d="M53.8987 29.8158H13.4351C12.2795 29.8158 11.3336 28.9214 11.3336 27.8288C11.3336 26.7347 12.2795 25.8403 13.4351 25.8403H53.8987C55.0543 25.8403 56.0002 26.7347 56.0002 27.8288C56.0002 28.9214 55.0543 29.8158 53.8987 29.8158Z" fill="#E0E2EE"/>
<path fill-rule="evenodd" clip-rule="evenodd" d="M53.8987 41.7425H13.4351C12.2795 41.7425 11.3336 40.8482 11.3336 39.7556C11.3336 38.6615 12.2795 37.7671 13.4351 37.7671H53.8987C55.0543 37.7671 56.0002 38.6615 56.0002 39.7556C56.0002 40.8482 55.0543 41.7425 53.8987 41.7425Z" fill="#E0E2EE"/>
<path fill-rule="evenodd" clip-rule="evenodd" d="M53.8987 53.6688H13.4351C12.2795 53.6688 11.3336 52.7745 11.3336 51.6818C11.3336 50.5892 12.2795 49.6934 13.4351 49.6934H53.8987C55.0543 49.6934 56.0002 50.5892 56.0002 51.6818C56.0002 52.7745 55.0543 53.6688 53.8987 53.6688Z" fill="#E0E2EE"/>
<path fill-rule="evenodd" clip-rule="evenodd" d="M53.8987 65.5951H13.4351C12.2795 65.5951 11.3336 64.7007 11.3336 63.6081C11.3336 62.514 12.2795 61.6196 13.4351 61.6196H53.8987C55.0543 61.6196 56.0002 62.514 56.0002 63.6081C56.0002 64.7007 55.0543 65.5951 53.8987 65.5951Z" fill="#E0E2EE"/>
<path fill-rule="evenodd" clip-rule="evenodd" d="M34.5564 77.5214H13.4441C12.2836 77.5214 11.3336 76.627 11.3336 75.5344C11.3336 74.4403 12.2836 73.5459 13.4441 73.5459H34.5564C35.7169 73.5459 36.6669 74.4403 36.6669 75.5344C36.6669 76.627 35.7169 77.5214 34.5564 77.5214Z" fill="#E0E2EE"/>
<path fill-rule="evenodd" clip-rule="evenodd" d="M77.17 62.108C69.0789 70.1481 56.5529 71.0552 47.4591 64.8476C46.2969 64.0401 45.1907 63.1331 44.1592 62.108C43.6281 61.582 43.1276 61.0391 42.656 60.4676C41.7127 59.3263 40.8864 58.109 40.2095 56.8513C39.0168 54.7271 38.2058 52.473 37.763 50.1431C36.3344 42.8363 38.4705 34.9715 44.1592 29.3204C49.8615 23.6523 57.7761 21.5432 65.1292 22.9493C67.4722 23.4028 69.7423 24.2087 71.88 25.3804C73.1474 26.0682 74.3554 26.8893 75.5057 27.8266C76.0791 28.2936 76.6254 28.7927 77.1548 29.3204C78.188 30.3454 79.1143 31.4429 79.9117 32.5995C86.1603 41.6343 85.2459 54.0831 77.17 62.108Z" fill="white" fill-opacity="0.1"/>
<path fill-rule="evenodd" clip-rule="evenodd" d="M74.906 60.5242C66.4883 68.8918 52.8467 68.8903 44.4274 60.5242C36.0191 52.1674 36.0191 38.608 44.4384 30.2419C52.8467 21.8851 66.4883 21.8851 74.8966 30.2419C83.3143 38.608 83.3143 52.1674 74.906 60.5242ZM79.2261 25.9436C68.4212 15.205 50.9123 15.205 40.1074 25.9436C29.3041 36.6807 29.2947 54.0932 40.098 64.8318C49.9317 74.6021 65.3449 75.4832 76.1857 67.4611C77.2446 66.6765 78.2643 65.797 79.237 64.8318C80.2082 63.865 81.0932 62.8515 81.8811 61.7992C89.9526 51.0232 89.0582 35.7155 79.2261 25.9436Z" fill="#E0E2EE"/>
<path fill-rule="evenodd" clip-rule="evenodd" d="M121.748 105.311L121.294 105.762C118.293 108.746 113.379 108.746 110.377 105.762L82.6667 78.2222L94.0383 66.9204L121.748 94.4603C124.751 97.4444 124.751 102.327 121.748 105.311Z" fill="#1AA6EE"/>
<path fill-rule="evenodd" clip-rule="evenodd" d="M82.4785 60.957L90.6668 69.0952L84.8536 74.8711L76.6669 66.733C77.7474 65.9324 78.7863 65.0348 79.7805 64.0499C80.7714 63.065 81.6745 62.0309 82.4785 60.957Z" fill="#E0E2EE"/>
<path fill-rule="evenodd" clip-rule="evenodd" d="M121.333 94.1214L110.034 105.35L108 103.326L119.298 92.0981L121.333 94.1214Z" fill="#1AA6EE"/>
<path fill-rule="evenodd" clip-rule="evenodd" d="M94.6667 67.3092L83.0581 78.8467L81.3334 77.1328L92.9419 65.5952L94.6667 67.3092Z" fill="#0A89CA"/>
<path fill-rule="evenodd" clip-rule="evenodd" d="M69.3336 27.3638L40.8647 55.6568C39.7925 53.747 39.0635 51.7206 38.667 49.6259L63.2652 25.1782C65.3714 25.5875 67.412 26.3104 69.3336 27.3638Z" fill="white" fill-opacity="0.5"/>
<path fill-rule="evenodd" clip-rule="evenodd" d="M78.6667 34.0885L47.8887 62.9448C46.7865 62.2236 45.7374 61.4119 44.7591 60.4947C44.2555 60.0225 43.7792 59.5382 43.3335 59.0267L74.4864 29.8159C75.0319 30.2353 75.55 30.6819 76.052 31.1541C77.0303 32.0714 77.9105 33.0535 78.6667 34.0885Z" fill="white" fill-opacity="0.5"/>
</svg>
