<svg width="16" height="16" viewBox="0 0 16 16" fill="none" xmlns="http://www.w3.org/2000/svg">
<path d="M8.00002 12.6669C7.43869 12.6669 6.87669 12.5482 6.33069 12.3369" stroke="#AEB1C5" stroke-width="1.5" stroke-linecap="round" stroke-linejoin="round"/>
<path d="M13.9213 8.31152C12.66 10.6442 10.33 12.6662 8 12.6662" stroke="#AEB1C5" stroke-width="1.5" stroke-linecap="round" stroke-linejoin="round"/>
<path d="M12.7194 5.94727C13.18 6.4866 13.5894 7.0746 13.9214 7.6886C14.026 7.8826 14.026 8.11793 13.9214 8.31193" stroke="#AEB1C5" stroke-width="1.5" stroke-linecap="round" stroke-linejoin="round"/>
<path d="M3.33331 12.6663L12.6666 3.33301" stroke="#AEB1C5" stroke-width="1.5" stroke-linecap="round" stroke-linejoin="round"/>
<path d="M6.51533 9.48441C5.69533 8.66441 5.69533 7.33441 6.51533 6.51441C7.33533 5.69441 8.66533 5.69441 9.48533 6.51441" stroke="#AEB1C5" stroke-width="1.5" stroke-linecap="round" stroke-linejoin="round"/>
<path d="M11.3627 4.63701C10.3313 3.83901 9.16535 3.33301 8.00002 3.33301C5.67002 3.33301 3.34002 5.35501 2.07868 7.68834C1.97402 7.88234 1.97402 8.11768 2.07868 8.31168C2.70935 9.47768 3.60668 10.5657 4.63735 11.363" stroke="#AEB1C5" stroke-width="1.5" stroke-linecap="round" stroke-linejoin="round"/>
</svg>
