<svg width="16" height="16" viewBox="0 0 16 16" fill="none" xmlns="http://www.w3.org/2000/svg">
<path d="M2.0785 8.31101C1.97383 8.11701 1.97383 7.88167 2.0785 7.68767C3.33983 5.35501 5.66983 3.33301 7.99983 3.33301C10.3298 3.33301 12.6598 5.35501 13.9212 7.68834C14.0258 7.88234 14.0258 8.11767 13.9212 8.31167C12.6598 10.6443 10.3298 12.6663 7.99983 12.6663C5.66983 12.6663 3.33983 10.6443 2.0785 8.31101V8.31101Z" stroke="#AEB1C5" stroke-width="1.5" stroke-linecap="round" stroke-linejoin="round"/>
<path d="M9.41421 6.58579C10.1953 7.36683 10.1953 8.63316 9.41421 9.41421C8.63316 10.1953 7.36683 10.1953 6.58579 9.41421C5.80474 8.63316 5.80474 7.36683 6.58579 6.58579C7.36683 5.80474 8.63316 5.80474 9.41421 6.58579Z" stroke="#AEB1C5" stroke-width="1.4286" stroke-linecap="round" stroke-linejoin="round"/>
</svg>
