<svg width="60" height="60" viewBox="0 0 60 60" fill="none" xmlns="http://www.w3.org/2000/svg">
<path fill-rule="evenodd" clip-rule="evenodd" d="M9.6967 4.6967C11.1032 3.29018 13.0109 2.5 15 2.5H32.5C33.163 2.5 33.7989 2.76339 34.2678 3.23223L51.7678 20.7322C52.2366 21.2011 52.5 21.837 52.5 22.5V50C52.5 51.9891 51.7098 53.8968 50.3033 55.3033C48.8968 56.7098 46.9891 57.5 45 57.5H15C13.0109 57.5 11.1032 56.7098 9.6967 55.3033C8.29018 53.8968 7.5 51.9891 7.5 50V10C7.5 8.01088 8.29018 6.10322 9.6967 4.6967ZM15 7.5C14.337 7.5 13.7011 7.76339 13.2322 8.23223C12.7634 8.70107 12.5 9.33696 12.5 10V50C12.5 50.663 12.7634 51.2989 13.2322 51.7678C13.7011 52.2366 14.337 52.5 15 52.5H45C45.663 52.5 46.2989 52.2366 46.7678 51.7678C47.2366 51.2989 47.5 50.663 47.5 50V23.5355L31.4645 7.5H15Z" fill="#45485E"/>
<path fill-rule="evenodd" clip-rule="evenodd" d="M32.5 2.5C33.8807 2.5 35 3.61929 35 5V20H50C51.3807 20 52.5 21.1193 52.5 22.5C52.5 23.8807 51.3807 25 50 25H32.5C31.1193 25 30 23.8807 30 22.5V5C30 3.61929 31.1193 2.5 32.5 2.5Z" fill="#45485E"/>
</svg>
