<svg width="18" height="18" viewBox="0 0 18 18" fill="none" xmlns="http://www.w3.org/2000/svg">
<path fill-rule="evenodd" clip-rule="evenodd" d="M12.612 1.29199H5.38783C2.87033 1.29199 1.29199 3.07449 1.29199 5.59699V12.4037C1.29199 14.9262 2.86283 16.7087 5.38783 16.7087H12.6112C15.137 16.7087 16.7087 14.9262 16.7087 12.4037V5.59699C16.7087 3.07449 15.137 1.29199 12.612 1.29199Z" stroke="#1AA6EE" stroke-width="1.5" stroke-linecap="round" stroke-linejoin="round"/>
<path fill-rule="evenodd" clip-rule="evenodd" d="M7.9103 9.00037C7.9103 9.85203 7.21946 10.5437 6.36696 10.5437C5.5153 10.5437 4.82446 9.85203 4.82446 9.00037C4.82446 8.1487 5.5153 7.45703 6.36696 7.45703C7.21946 7.45703 7.9103 8.1487 7.9103 9.00037Z" stroke="#1AA6EE" stroke-width="1.5" stroke-linecap="round" stroke-linejoin="round"/>
<path d="M7.91028 9H13.1753V10.5433" stroke="#1AA6EE" stroke-width="1.5" stroke-linecap="round" stroke-linejoin="round"/>
<path d="M10.818 10.5433V9" stroke="#1AA6EE" stroke-width="1.5" stroke-linecap="round" stroke-linejoin="round"/>
</svg>
