<svg width="32" height="10" viewBox="0 0 32 10" fill="none" xmlns="http://www.w3.org/2000/svg">
<path d="M24.7365 3.04443H23.0095C22.9079 3.04443 22.8063 3.14602 22.7555 3.24761L22.0444 7.71747C22.0444 7.81905 22.0952 7.86985 22.1968 7.86985H23.1111C23.2127 7.86985 23.2635 7.81905 23.2635 7.71747L23.4667 6.44762C23.4667 6.34603 23.5682 6.24444 23.7206 6.24444H24.2794C25.4476 6.24444 26.1079 5.68571 26.2603 4.56825C26.3619 4.1111 26.2603 3.70475 26.0571 3.45078C25.7524 3.19681 25.2952 3.04443 24.7365 3.04443ZM24.9397 4.72063C24.8381 5.33016 24.3809 5.33016 23.9238 5.33016H23.619L23.8222 4.1619C23.8222 4.1111 23.873 4.06031 23.9746 4.06031H24.0762C24.3809 4.06031 24.6857 4.06031 24.8381 4.26349C24.9397 4.31428 24.9397 4.46666 24.9397 4.72063Z" fill="#139AD6"/>
<path d="M12.2918 3.04443H10.5648C10.4632 3.04443 10.3616 3.14602 10.3108 3.24761L9.59973 7.71746C9.59973 7.81905 9.65053 7.86985 9.75211 7.86985H10.5648C10.6664 7.86985 10.768 7.76826 10.8188 7.66667L11.022 6.44762C11.022 6.34603 11.1235 6.24444 11.2759 6.24444H11.8347C13.0029 6.24444 13.6632 5.68571 13.8156 4.56825C13.9172 4.1111 13.8156 3.70475 13.6124 3.45078C13.3077 3.19681 12.9013 3.04443 12.2918 3.04443ZM12.495 4.72063C12.3934 5.33015 11.9362 5.33016 11.4791 5.33016H11.2251L11.4283 4.1619C11.4283 4.1111 11.4791 4.06031 11.5807 4.06031H11.6823C11.987 4.06031 12.2918 4.06031 12.4442 4.26348C12.495 4.31428 12.5458 4.46666 12.495 4.72063ZM17.5236 4.66984H16.7109C16.6601 4.66984 16.5585 4.72063 16.5585 4.77142L16.5077 5.02539L16.4569 4.9238C16.2537 4.66984 15.8982 4.56825 15.4918 4.56825C14.5775 4.56825 13.7648 5.27936 13.6124 6.24444C13.5109 6.75238 13.6632 7.20953 13.9172 7.51429C14.1712 7.81905 14.5267 7.92064 14.9839 7.92064C15.7458 7.92064 16.1521 7.4635 16.1521 7.4635L16.1013 7.71746C16.1013 7.81905 16.1521 7.86985 16.2537 7.86985H17.0156C17.1172 7.86985 17.2188 7.76826 17.2696 7.66667L17.7267 4.82222C17.6759 4.77142 17.5744 4.66984 17.5236 4.66984ZM16.3553 6.29524C16.2537 6.75238 15.8982 7.10794 15.3902 7.10794C15.1363 7.10794 14.9331 7.00635 14.8315 6.90476C14.7299 6.75238 14.6791 6.54921 14.6791 6.29524C14.7299 5.83809 15.1363 5.48254 15.5934 5.48254C15.8474 5.48254 15.9998 5.58412 16.1521 5.68571C16.3045 5.83809 16.3553 6.09206 16.3553 6.29524Z" fill="#263B80"/>
<path d="M29.9176 4.66995H29.1049C29.0541 4.66995 28.9525 4.72074 28.9525 4.77153L28.9017 5.0255L28.8509 4.92392C28.6478 4.66995 28.2922 4.56836 27.8859 4.56836C26.9716 4.56836 26.1589 5.27947 26.0065 6.24456C25.9049 6.75249 26.0573 7.20964 26.3113 7.5144C26.5652 7.81916 26.9208 7.92075 27.3779 7.92075C28.1398 7.92075 28.5462 7.46361 28.5462 7.46361L28.4954 7.71758C28.4954 7.81916 28.5462 7.86996 28.6478 7.86996H29.4097C29.5113 7.86996 29.6129 7.76837 29.6636 7.66678L30.1208 4.82233C30.07 4.77153 30.0192 4.66995 29.9176 4.66995ZM28.7494 6.29535C28.6478 6.75249 28.2922 7.10805 27.7843 7.10805C27.5303 7.10805 27.3271 7.00646 27.2255 6.90487C27.124 6.75249 27.0732 6.54932 27.0732 6.29535C27.124 5.8382 27.5303 5.48265 27.9874 5.48265C28.2414 5.48265 28.3938 5.58424 28.5462 5.68582C28.7494 5.83821 28.8002 6.09217 28.7494 6.29535Z" fill="#139AD6"/>
<path d="M21.9428 4.66992H21.0793C20.9777 4.66992 20.9269 4.72072 20.8761 4.77151L19.7587 6.4985L19.2507 4.8731C19.1999 4.77151 19.1491 4.72072 18.9968 4.72072H18.1841C18.0825 4.72072 18.0317 4.8223 18.0317 4.92389L18.946 7.61596L18.0825 8.83501C18.0317 8.9366 18.0825 9.08898 18.1841 9.08898H18.9968C19.0983 9.08898 19.1491 9.03819 19.1999 8.9874L21.9936 4.97468C22.146 4.8223 22.0444 4.66992 21.9428 4.66992Z" fill="#263B80"/>
<path d="M30.8826 3.1972L30.1714 7.76864C30.1714 7.87023 30.2222 7.92102 30.3238 7.92102H31.0349C31.1365 7.92102 31.2381 7.81944 31.2889 7.71785L32 3.24799C32 3.1464 31.9492 3.09561 31.8476 3.09561H31.0349C30.9841 3.04482 30.9334 3.09561 30.8826 3.1972Z" fill="#139AD6"/>
<path d="M5.84129 1.52066C5.48573 1.11431 4.82541 0.911133 3.91112 0.911133H1.37143C1.21905 0.911133 1.06667 1.06351 1.01588 1.2159L0 7.86989C0 8.02227 0.101588 8.12386 0.203175 8.12386H1.77778L2.18413 5.63496V5.73655C2.23493 5.58416 2.38731 5.43178 2.53969 5.43178H3.3016C4.77462 5.43178 5.89208 4.82226 6.24764 3.14606V2.99368C6.19685 2.99368 6.19685 2.99368 6.24764 2.99368C6.29843 2.33336 6.19685 1.92701 5.84129 1.52066Z" fill="#263B80"/>
<path d="M6.19663 2.99365V3.14603C5.84107 4.87302 4.72361 5.43176 3.25059 5.43176H2.48868C2.3363 5.43176 2.18391 5.58414 2.13312 5.73652L1.62518 8.83494C1.62518 8.93653 1.67598 9.03812 1.82836 9.03812H3.149C3.30138 9.03812 3.45376 8.93653 3.45376 8.78415V8.73335L3.70773 7.15874V7.05716C3.70773 6.90477 3.86011 6.80319 4.01249 6.80319H4.21567C5.48551 6.80319 6.50139 6.29525 6.75536 4.77144C6.85695 4.16191 6.80615 3.60318 6.50139 3.24762C6.4506 3.14603 6.34901 3.04445 6.19663 2.99365Z" fill="#139AD6"/>
<path d="M5.84136 2.84135C5.79057 2.84135 5.73977 2.79055 5.68898 2.79055C5.63818 2.79055 5.58739 2.79055 5.5366 2.73976C5.33342 2.68897 5.13025 2.68896 4.87628 2.68896H2.89532C2.84452 2.68896 2.79373 2.68897 2.74294 2.73976C2.64135 2.79055 2.59055 2.89214 2.59055 2.99373L2.1842 5.63501V5.73659C2.235 5.58421 2.38738 5.43183 2.53976 5.43183H3.30167C4.77469 5.43183 5.89215 4.8223 6.24771 3.14611C6.24771 3.09532 6.24771 3.04452 6.2985 2.99373C6.19692 2.94293 6.14612 2.89214 6.04453 2.89214C5.89215 2.84135 5.89215 2.84135 5.84136 2.84135Z" fill="#232C65"/>
</svg>
