<svg width="48" height="48" viewBox="0 0 48 48" fill="none" xmlns="http://www.w3.org/2000/svg">
<circle cx="24" cy="24" r="24" fill="#E8F6FD"/>
<path fill-rule="evenodd" clip-rule="evenodd" d="M10.5937 17.9C10.5937 17.5313 10.8954 17.2297 11.2641 17.2297H15.9562V22.5922H10.5937V17.9ZM17.2969 17.2297H22.6594V22.5922H17.2969V17.2297ZM24 17.2297H29.3625V22.5922H24V17.2297ZM30.7031 17.2297H35.1607C35.7975 17.2297 36.3673 17.6988 36.4678 18.3355L37.2387 23.0949C37.3057 23.5977 37.3728 24.1004 37.3728 24.6031H32.7141L30.7031 22.5922V17.2297ZM9.25311 17.2297V29.2953C9.25311 30.0326 9.85639 30.6359 10.5937 30.6359H10.6608C10.6273 30.4348 10.5937 30.2002 10.5937 29.9656C10.5937 28.1223 12.102 26.6141 13.9453 26.6141C15.7887 26.6141 17.2969 28.1223 17.2969 29.9656C17.2969 30.2002 17.2634 30.4348 17.2298 30.6359H29.4295C29.396 30.4348 29.3625 30.2002 29.3625 29.9656C29.3625 28.1223 30.8707 26.6141 32.7141 26.6141C34.5574 26.6141 36.0656 28.1223 36.0656 29.9656C36.0656 30.2002 36.0321 30.4348 35.9986 30.6359H37.4063C38.1436 30.6359 38.7469 30.0326 38.7469 29.2953V25.0053C38.7469 24.3014 38.6798 23.5641 38.5793 22.8601L37.8084 18.0676C37.5738 16.794 36.4678 15.8555 35.1607 15.8555H10.5937C9.85639 15.8891 9.25311 16.4922 9.25311 17.2297Z" fill="#0C1132"/>
<path fill-rule="evenodd" clip-rule="evenodd" d="M35.0602 29.9652C35.0602 31.2609 34.0098 32.3113 32.7141 32.3113C31.4183 32.3113 30.368 31.2609 30.368 29.9652C30.368 28.6696 31.4183 27.6191 32.7141 27.6191C34.0098 27.6191 35.0602 28.6696 35.0602 29.9652Z" fill="#0C1132"/>
<path fill-rule="evenodd" clip-rule="evenodd" d="M16.2914 29.9652C16.2914 31.2609 15.241 32.3113 13.9453 32.3113C12.6495 32.3113 11.5992 31.2609 11.5992 29.9652C11.5992 28.6696 12.6495 27.6191 13.9453 27.6191C15.241 27.6191 16.2914 28.6696 16.2914 29.9652Z" fill="#0C1132"/>
</svg>
