<svg width="40" height="40" viewBox="0 0 40 40" fill="none" xmlns="http://www.w3.org/2000/svg">
<circle cx="20" cy="20" r="20" fill="#FFB600" fill-opacity="0.1"/>
<path fill-rule="evenodd" clip-rule="evenodd" d="M24.4184 14.47H24.6232C27.3152 14.47 29.5 16.72 29.5 19.48V25C29.5 27.76 27.3152 30 24.6232 30H15.3768C12.6848 30 10.5 27.76 10.5 25V19.48C10.5 16.72 12.6848 14.47 15.3768 14.47H15.5816C15.6011 13.27 16.0595 12.15 16.8886 11.31C17.7274 10.46 18.8003 10.03 20.0098 10C22.4286 10 24.3891 12 24.4184 14.47ZM17.9127 12.38C17.3665 12.94 17.0642 13.68 17.0447 14.47H22.9553C22.9261 12.83 21.6191 11.5 20.0098 11.5C19.2587 11.5 18.4784 11.81 17.9127 12.38ZM23.7064 18.32C24.116 18.32 24.4379 17.98 24.4379 17.57V16.41C24.4379 16 24.116 15.66 23.7064 15.66C23.3065 15.66 22.9748 16 22.9748 16.41V17.57C22.9748 17.98 23.3065 18.32 23.7064 18.32ZM16.9374 17.57C16.9374 17.98 16.6155 18.32 16.2059 18.32C15.806 18.32 15.4743 17.98 15.4743 17.57V16.41C15.4743 16 15.806 15.66 16.2059 15.66C16.6155 15.66 16.9374 16 16.9374 16.41V17.57Z" fill="#FFB600"/>
</svg>
