<svg width="40" height="40" viewBox="0 0 40 40" fill="none" xmlns="http://www.w3.org/2000/svg">
<circle cx="20" cy="20" r="20" fill="#33CC7F" fill-opacity="0.1"/>
<path fill-rule="evenodd" clip-rule="evenodd" d="M24.9394 11C26.2804 11 27.5704 11.53 28.5194 12.481C29.4694 13.43 30.0004 14.71 30.0004 16.05V23.95C30.0004 26.74 27.7304 29 24.9394 29H15.0604C12.2694 29 10.0004 26.74 10.0004 23.95V16.05C10.0004 13.26 12.2594 11 15.0604 11H24.9394ZM26.5304 17.54L26.6104 17.46C26.8494 17.17 26.8494 16.75 26.5994 16.46C26.4604 16.311 26.2694 16.22 26.0704 16.2C25.8604 16.189 25.6604 16.26 25.5094 16.4L21.0004 20C20.4204 20.481 19.5894 20.481 19.0004 20L14.5004 16.4C14.1894 16.17 13.7594 16.2 13.5004 16.47C13.2304 16.74 13.2004 17.17 13.4294 17.47L13.5604 17.6L18.1104 21.15C18.6704 21.59 19.3494 21.83 20.0604 21.83C20.7694 21.83 21.4604 21.59 22.0194 21.15L26.5304 17.54Z" fill="#33CC7F"/>
</svg>
