<svg width="14" height="14" viewBox="0 0 14 14" fill="none" xmlns="http://www.w3.org/2000/svg">
<path fill-rule="evenodd" clip-rule="evenodd" d="M6.99998 1.74967C4.10048 1.74967 1.74998 4.10018 1.74998 6.99967C1.74998 9.89917 4.10048 12.2497 6.99998 12.2497C9.89947 12.2497 12.25 9.89917 12.25 6.99967C12.25 4.10018 9.89947 1.74967 6.99998 1.74967ZM0.583313 6.99967C0.583313 3.45585 3.45615 0.583008 6.99998 0.583008C10.5438 0.583008 13.4166 3.45585 13.4166 6.99967C13.4166 10.5435 10.5438 13.4163 6.99998 13.4163C3.45615 13.4163 0.583313 10.5435 0.583313 6.99967Z" fill="#33CC7F"/>
<path fill-rule="evenodd" clip-rule="evenodd" d="M4.66669 5.25033C4.66669 4.92816 4.92785 4.66699 5.25002 4.66699H8.75002C9.07219 4.66699 9.33335 4.92816 9.33335 5.25033V8.75033C9.33335 9.07249 9.07219 9.33366 8.75002 9.33366H5.25002C4.92785 9.33366 4.66669 9.07249 4.66669 8.75033V5.25033ZM5.83335 5.83366V8.16699H8.16669V5.83366H5.83335Z" fill="#33CC7F"/>
</svg>
