<svg width="20" height="20" viewBox="0 0 20 20" fill="none" xmlns="http://www.w3.org/2000/svg">
<g clip-path="url(#clip0_9676_91624)">
<path d="M14.1667 17.5V3.33333C14.1667 2.87333 13.7934 2.5 13.3334 2.5H6.66671C6.20671 2.5 5.83337 2.87333 5.83337 3.33333V17.5" stroke="#B2BABE" stroke-width="1.5" stroke-linecap="round" stroke-linejoin="round"/>
<path d="M5.83341 7.5H2.50008C2.04008 7.5 1.66675 7.87333 1.66675 8.33333V17.5" stroke="#B2BABE" stroke-width="1.5" stroke-linecap="round" stroke-linejoin="round"/>
<path d="M18.3334 17.5V8.33333C18.3334 7.87333 17.9601 7.5 17.5001 7.5H14.1667" stroke="#B2BABE" stroke-width="1.5" stroke-linecap="round" stroke-linejoin="round"/>
<path d="M7.91675 14.168H12.0834" stroke="#B2BABE" stroke-width="1.5" stroke-linecap="round" stroke-linejoin="round"/>
<path d="M11.25 14.168V17.5013" stroke="#B2BABE" stroke-width="1.5" stroke-linecap="round" stroke-linejoin="round"/>
<path d="M8.75 17.5013V14.168" stroke="#B2BABE" stroke-width="1.5" stroke-linecap="round" stroke-linejoin="round"/>
<path d="M8.33337 8.75H11.6667" stroke="#B2BABE" stroke-width="1.5" stroke-linecap="round" stroke-linejoin="round"/>
<path d="M8.33337 11.25H11.6667" stroke="#B2BABE" stroke-width="1.5" stroke-linecap="round" stroke-linejoin="round"/>
<path d="M8.33337 6.25H11.6667" stroke="#B2BABE" stroke-width="1.5" stroke-linecap="round" stroke-linejoin="round"/>
<path d="M4.16675 11.25H5.83342" stroke="#B2BABE" stroke-width="1.5" stroke-linecap="round" stroke-linejoin="round"/>
<path d="M4.16675 14.168H5.83342" stroke="#B2BABE" stroke-width="1.5" stroke-linecap="round" stroke-linejoin="round"/>
<path d="M14.1667 11.25H15.8334" stroke="#B2BABE" stroke-width="1.5" stroke-linecap="round" stroke-linejoin="round"/>
<path d="M14.1667 14.168H15.8334" stroke="#B2BABE" stroke-width="1.5" stroke-linecap="round" stroke-linejoin="round"/>
<path d="M19.1667 17.5H0.833374" stroke="#B2BABE" stroke-width="1.5" stroke-linecap="round" stroke-linejoin="round"/>
</g>
<defs>
<clipPath id="clip0_9676_91624">
<rect width="20" height="20" fill="white"/>
</clipPath>
</defs>
</svg>
