<svg width="24" height="24" viewBox="0 0 24 24" fill="none" xmlns="http://www.w3.org/2000/svg">
<path d="M17.015 10.5555H6.97255V15.7582H17.015V10.5555Z" stroke="black" stroke-width="1.5" stroke-miterlimit="10"/>
<path d="M15.4241 10.3804V10.5555H8.56344C8.55101 10.4929 8.55101 10.4429 8.55101 10.3804C8.55101 8.46688 10.0922 6.91608 11.9938 6.91608C13.883 6.91608 15.4241 8.46688 15.4241 10.3804Z" stroke="black" stroke-width="1.5" stroke-miterlimit="10"/>
<path d="M21.5142 17.6592C19.6002 20.8984 16.0953 23.062 12.0808 23.062C6.0031 23.062 1.0813 18.1094 1.0813 11.9938C1.0813 11.6686 1.09373 11.3309 1.13101 11.0182" stroke="black" stroke-width="1.5" stroke-miterlimit="10"/>
<path d="M22.7944 14.445C22.9808 13.6571 23.0678 12.8317 23.0678 11.9937C23.0678 5.89057 18.146 0.937988 12.0808 0.937988C7.53185 0.937988 3.64164 3.70193 1.95132 7.65399" stroke="black" stroke-width="1.5" stroke-miterlimit="10"/>
<path d="M22.173 21.3486L21.8995 17.1214L17.8726 18.0844" stroke="black" stroke-width="1.5" stroke-miterlimit="10"/>
<path d="M0.919739 3.7019L1.59089 8.09169L5.8664 6.61592" stroke="black" stroke-width="1.5" stroke-miterlimit="10"/>
</svg>
