<svg width="24" height="24" viewBox="0 0 24 24" fill="none" xmlns="http://www.w3.org/2000/svg">
<rect width="24" height="24" fill="white"/>
<path d="M7.50002 15.1376C6.33525 15.1376 5.39132 16.0812 5.39132 17.2461C5.39132 18.411 6.33525 19.3546 7.50002 19.3546C8.6652 19.3546 9.6089 18.411 9.6089 17.2461C9.6089 16.0812 8.6652 15.1376 7.50002 15.1376ZM7.50002 18.1628C6.99369 18.1628 6.58341 17.7524 6.58341 17.2461C6.58341 16.7395 6.99369 16.3294 7.50002 16.3294C8.00641 16.3294 8.41699 16.7395 8.41699 17.2461C8.41699 17.7524 8.00641 18.1628 7.50002 18.1628Z" fill="black"/>
<path d="M18.6195 15.1376C17.4548 15.1376 16.5109 16.0812 16.5109 17.2461C16.5109 18.411 17.4548 19.3546 18.6195 19.3546C19.7848 19.3546 20.7284 18.411 20.7284 17.2461C20.7284 16.0812 19.7848 15.1376 18.6195 15.1376ZM18.6195 18.1628C18.1132 18.1628 17.703 17.7524 17.703 17.2461C17.703 16.7395 18.1132 16.3294 18.6195 16.3294C19.126 16.3294 19.5366 16.7395 19.5366 17.2461C19.5366 17.7524 19.126 18.1628 18.6195 18.1628Z" fill="black"/>
<path d="M9.87233 8.6587C9.87233 8.95417 9.63055 9.19589 9.33514 9.19589H1.92215C1.62668 9.19589 1.38502 8.95417 1.38502 8.6587V8.33639C1.38502 8.04098 1.62674 7.79926 1.92215 7.79926H9.33514C9.63061 7.79926 9.87233 8.04098 9.87233 8.33639V8.6587Z" fill="black"/>
<path d="M22.7516 11.8038C21.9784 11.6028 21.5359 11.4764 21.2323 10.8901L20.2171 8.83458C19.9134 8.24824 19.1246 7.76846 18.4644 7.76846H17.0759C17.0759 7.76846 16.8891 7.77235 16.8891 7.58438C16.8891 7.15339 16.8891 5.86048 16.8891 5.86048C16.8891 5.19219 16.5109 4.64539 15.7064 4.64539H4.38986C3.23813 4.64539 2.69132 5.19225 2.69132 5.86048V6.94082C2.69132 6.94082 2.69132 7.26213 3.00231 7.26213C4.5855 7.26213 9.33514 7.26213 9.33514 7.26213C9.92756 7.26213 10.4095 7.74403 10.4095 8.33645V8.65876C10.4095 9.25117 9.92756 9.73308 9.33514 9.73308H3.00231C3.00231 9.73308 2.69132 9.70724 2.69132 10.0429C2.69132 10.2097 2.69132 10.3216 2.69132 10.4145C2.69132 10.7099 3.09629 10.7098 3.09629 10.7098H7.35925C7.95166 10.7098 8.43363 11.1917 8.43363 11.7841V12.1064C8.43363 12.6988 7.95166 13.1807 7.35925 13.1807H3.16355C3.16355 13.1807 2.69132 13.172 2.69132 13.548C2.69132 14.2006 2.69132 16.1585 2.69132 16.1585C2.69132 16.8267 3.23813 17.3736 3.90642 17.3736C3.90642 17.3736 4.4098 17.3736 4.5776 17.3736C4.72982 17.3736 4.75223 17.2888 4.75223 17.2462C4.75223 15.7311 5.98497 14.4987 7.50008 14.4987C9.01531 14.4987 10.248 15.7313 10.248 17.2462C10.248 17.289 10.2358 17.3736 10.3522 17.3736C11.6827 17.3736 15.7687 17.3736 15.7687 17.3736C15.8761 17.3736 15.8718 17.2831 15.8718 17.2462C15.8718 15.7311 17.1044 14.4987 18.6196 14.4987C20.1348 14.4987 21.3674 15.7313 21.3674 17.2462C21.3674 17.289 21.3664 17.3736 21.4336 17.3736C22.0436 17.3736 22.7992 17.3736 22.7992 17.3736C23.4597 17.3736 23.9999 16.8333 23.9999 16.1729V13.8917C24 11.9706 23.3934 11.9706 22.7516 11.8038ZM20.4667 11.6969C20.4667 11.6969 17.9168 11.6969 17.049 11.6969C16.9078 11.6969 16.889 11.5595 16.889 11.5595V8.71245C16.889 8.71245 16.8811 8.60312 17.0624 8.60312C17.3062 8.60312 18.0376 8.60312 18.0376 8.60312C18.6251 8.60312 19.327 9.03004 19.5972 9.55177L20.5006 11.3808C20.5386 11.4544 20.5793 11.5198 20.6228 11.5783C20.6549 11.6213 20.6011 11.6969 20.4667 11.6969Z" fill="black"/>
<path d="M7.89638 12.1064C7.89638 12.4019 7.65466 12.6436 7.35925 12.6436H0.537132C0.241662 12.6436 0 12.4019 0 12.1064V11.7841C0 11.4887 0.241721 11.2469 0.537132 11.2469H7.35925C7.65472 11.2469 7.89638 11.4887 7.89638 11.7841V12.1064Z" fill="black"/>
</svg>
