<svg width="24" height="24" viewBox="0 0 24 24" fill="none" xmlns="http://www.w3.org/2000/svg">
<g clip-path="url(#clip0_4016_35428)">
<path d="M16.307 5.75075V11.5821C16.0205 11.5821 15.7441 11.7029 15.5497 11.8943C15.3553 12.0856 15.2325 12.3576 15.2325 12.6396V12.7201C15.2325 12.8913 15.1813 13.0625 15.0789 13.2035C14.9868 13.3445 14.8538 13.4553 14.6901 13.5258H14.6491C14.4854 13.5963 14.3012 13.6165 14.1374 13.5863C13.9634 13.556 13.7997 13.4654 13.6769 13.3546L13.6462 13.3244C13.5541 13.2237 13.4211 13.1431 13.2982 13.0928C13.1754 13.0424 13.0322 13.0122 12.8787 13.0122C12.7456 13.0122 12.6023 13.0424 12.4693 13.0928C12.3363 13.1431 12.2134 13.2237 12.1111 13.3244C12.0088 13.4251 11.9371 13.546 11.886 13.6668C11.8246 13.7877 11.8041 13.9287 11.8041 14.0798C11.8041 14.2107 11.8246 14.3517 11.886 14.4927C11.9371 14.6135 12.0088 14.7344 12.1111 14.8351L12.1418 14.8653C12.2646 14.9862 12.3567 15.1473 12.3772 15.3185C12.4079 15.4897 12.3977 15.671 12.3158 15.8221C12.2544 15.9933 12.1418 16.1343 11.9985 16.235C11.845 16.3357 11.6813 16.3962 11.4971 16.3962H11.4561C11.1696 16.3962 10.8933 16.517 10.6988 16.7084C10.5044 16.8997 10.3918 17.1616 10.3816 17.4134H4.45614C4.00585 17.4134 3.57602 17.2422 3.25877 16.9299C2.94152 16.6177 2.75731 16.1847 2.75731 15.7516V2.41714C2.75731 1.974 2.93129 1.55101 3.25877 1.2388C3.57602 0.926584 4.01608 0.755371 4.45614 0.755371H11.231L16.307 5.75075Z" stroke="black" stroke-width="1.5" stroke-linecap="round" stroke-linejoin="round"/>
<path d="M11.231 0.755371V5.75076H16.307" stroke="black" stroke-width="1.5" stroke-linecap="round" stroke-linejoin="round"/>
<path d="M12.9196 9.92029H6.15497" stroke="black" stroke-width="1.5" stroke-linecap="round" stroke-linejoin="round"/>
<path d="M11.6813 13.2338H6.15497" stroke="black" stroke-width="1.5" stroke-linecap="round" stroke-linejoin="round"/>
<path d="M7.84356 6.58667H6.99415H6.15497" stroke="black" stroke-width="1.5" stroke-linecap="round" stroke-linejoin="round"/>
<path d="M21.9152 16.658C21.7105 16.4566 21.4342 16.3458 21.1579 16.3458H21.0658C20.8918 16.3458 20.7178 16.2954 20.5746 16.2048C20.4313 16.1041 20.3187 15.9731 20.2573 15.812V15.7717C20.1857 15.6106 20.1652 15.4394 20.1959 15.2681C20.2164 15.0969 20.3085 14.9459 20.4313 14.8149L20.462 14.7847C20.5541 14.684 20.636 14.5631 20.6871 14.4322C20.7485 14.3114 20.769 14.1704 20.769 14.0294C20.769 13.8884 20.7485 13.7474 20.6871 13.6164C20.636 13.4855 20.5541 13.3647 20.462 13.274C20.3596 13.1733 20.2368 13.0927 20.1038 13.0424C19.981 12.992 19.8377 12.9618 19.6944 12.9618C19.5512 12.9618 19.4079 12.992 19.2749 13.0424C19.1418 13.0927 19.019 13.1733 18.9269 13.274L18.8962 13.2942C18.7734 13.415 18.6096 13.5057 18.4357 13.5359C18.2617 13.556 18.0775 13.5459 17.924 13.4654C17.7602 13.3949 17.6272 13.2942 17.5351 13.1532C17.4327 13.0122 17.3816 12.8409 17.3816 12.6697V12.6295C17.3816 12.3475 17.269 12.0755 17.0643 11.8842C16.8596 11.6928 16.5936 11.572 16.307 11.572C16.0205 11.572 15.7441 11.6928 15.5497 11.8842C15.3553 12.0755 15.2325 12.3475 15.2325 12.6295V12.71C15.2325 12.8812 15.1813 13.0524 15.0789 13.1934C14.9868 13.3344 14.8538 13.4452 14.6901 13.5157H14.6491C14.4854 13.5862 14.3012 13.6064 14.1374 13.5762C13.9634 13.5459 13.7997 13.4553 13.6769 13.3445L13.6462 13.3143C13.5541 13.2136 13.4211 13.133 13.2982 13.0827C13.1754 13.0323 13.0322 13.0021 12.8787 13.0021C12.7456 13.0021 12.6023 13.0323 12.4693 13.0827C12.3363 13.133 12.2134 13.2136 12.1111 13.3143C12.0088 13.415 11.9371 13.5359 11.886 13.6567C11.8246 13.7776 11.8041 13.9186 11.8041 14.0697C11.8041 14.2006 11.8246 14.3416 11.886 14.4826C11.9371 14.6034 12.0088 14.7243 12.1111 14.825L12.1418 14.8552C12.2646 14.9761 12.3567 15.1372 12.3772 15.3084C12.4079 15.4796 12.3977 15.6609 12.3158 15.812C12.2544 15.9832 12.1418 16.1242 11.9985 16.2249C11.845 16.3256 11.6813 16.3861 11.4971 16.3861H11.4561C11.1696 16.3861 10.8933 16.5069 10.6988 16.6983C10.5044 16.8896 10.3918 17.1515 10.3816 17.4033V17.4436C10.3816 17.7255 10.4942 17.9975 10.6988 18.1888C10.9035 18.3903 11.1696 18.501 11.4561 18.501H11.5482C11.7222 18.501 11.8962 18.5514 12.0395 18.642C12.1827 18.7327 12.2953 18.8737 12.3567 19.0248C12.4284 19.196 12.4488 19.3672 12.4181 19.5283C12.3977 19.6995 12.3056 19.8607 12.1827 19.9815L12.152 20.042C12.0599 20.1427 11.9781 20.2635 11.9269 20.3844C11.8655 20.5153 11.845 20.6462 11.845 20.7973C11.845 20.9383 11.8655 21.0692 11.9269 21.2102C11.9781 21.3311 12.0599 21.4519 12.152 21.5527C12.2544 21.6534 12.3772 21.7239 12.5102 21.7843C12.633 21.8347 12.7763 21.8548 12.9196 21.8548C13.0629 21.8548 13.2061 21.8347 13.3392 21.7843C13.4722 21.7239 13.595 21.6534 13.6871 21.5527L13.7178 21.5224C13.8406 21.4016 14.0044 21.321 14.1784 21.2908C14.3523 21.2606 14.5365 21.2807 14.6901 21.3512C14.864 21.4217 15.0073 21.5224 15.1096 21.6634C15.212 21.8044 15.2734 21.9757 15.2836 22.1469V22.1972C15.2836 22.4792 15.3962 22.7511 15.6009 22.9425C15.8056 23.1339 16.0716 23.2547 16.3582 23.2547C16.6447 23.2547 16.9211 23.1439 17.1155 22.9425C17.3099 22.7411 17.4327 22.4792 17.4327 22.1972V22.1066C17.4327 21.9354 17.4839 21.7742 17.5863 21.6332C17.6784 21.4922 17.8114 21.3714 17.9751 21.3109C18.1389 21.2404 18.3129 21.2203 18.4868 21.2505C18.6608 21.2807 18.8246 21.3714 18.9474 21.4822L18.9781 21.5124C19.0702 21.6131 19.193 21.6836 19.326 21.744C19.4488 21.7944 19.5921 21.8145 19.7456 21.8145C19.8787 21.8145 20.0219 21.7944 20.155 21.744C20.288 21.6836 20.4108 21.6131 20.5132 21.5124C20.6155 21.4117 20.6871 21.2908 20.7383 21.1699C20.7997 21.039 20.8202 20.9081 20.8202 20.757C20.8202 20.616 20.7997 20.4851 20.7383 20.3441C20.6871 20.2232 20.6155 20.1024 20.5132 20.0017L20.4825 19.9715C20.3596 19.8506 20.2675 19.6895 20.2471 19.5182C20.2164 19.347 20.2266 19.1657 20.3085 19.0147C20.3801 18.8535 20.4825 18.7226 20.6257 18.632C20.769 18.5413 20.943 18.491 21.117 18.491H21.1681C21.4444 18.491 21.731 18.3701 21.9254 18.1788C22.1199 17.9874 22.2427 17.7155 22.2427 17.4335C22.2325 17.1414 22.1199 16.8594 21.9152 16.658ZM16.307 19.0046C15.4167 19.0046 14.6901 18.2996 14.6901 17.4133V17.4033C14.7003 16.5371 15.4167 15.8321 16.2968 15.8221H16.307C17.1974 15.8221 17.924 16.5371 17.924 17.4133C17.924 18.2996 17.1974 19.0046 16.307 19.0046Z" stroke="black" stroke-width="1.5" stroke-linecap="round" stroke-linejoin="round"/>
<path d="M17.924 17.4134C17.924 18.2996 17.1974 19.0046 16.307 19.0046C15.4167 19.0046 14.6901 18.2996 14.6901 17.4134V17.4033C14.7003 16.5371 15.4167 15.8322 16.2968 15.8221H16.307C17.1974 15.8221 17.924 16.5371 17.924 17.4134Z" stroke="black" stroke-width="1.5" stroke-linecap="round" stroke-linejoin="round"/>
</g>
<defs>
<clipPath id="clip0_4016_35428">
<rect width="21" height="24" fill="white" transform="translate(2)"/>
</clipPath>
</defs>
</svg>
