<svg width="24" height="24" viewBox="0 0 24 24" fill="none" xmlns="http://www.w3.org/2000/svg">
<path d="M8.25 18.75H2.25C1.85218 18.75 1.47064 18.592 1.18934 18.3107C0.908035 18.0294 0.75 17.6478 0.75 17.25V6.75C0.75 6.35218 0.908035 5.97064 1.18934 5.68934C1.47064 5.40804 1.85218 5.25 2.25 5.25H17.25C17.6478 5.25 18.0294 5.40804 18.3107 5.68934C18.592 5.97064 18.75 6.35218 18.75 6.75V8.25" stroke="black" stroke-width="1.5" stroke-linecap="round" stroke-linejoin="round"/>
<path d="M18.266 5.647L15.445 1.418C15.3083 1.21295 15.1232 1.04474 14.9061 0.928235C14.6889 0.811727 14.4464 0.750511 14.2 0.75H5.29999C5.05306 0.750018 4.80995 0.810998 4.59224 0.927528C4.37453 1.04406 4.18896 1.21253 4.05199 1.418L1.23399 5.647" stroke="black" stroke-width="1.5" stroke-linecap="round" stroke-linejoin="round"/>
<path d="M9.75 0.75V5.25" stroke="black" stroke-width="1.5" stroke-linecap="round" stroke-linejoin="round"/>
<path d="M17.251 18C18.0794 18 18.751 17.3284 18.751 16.5C18.751 15.6716 18.0794 15 17.251 15C16.4226 15 15.751 15.6716 15.751 16.5C15.751 17.3284 16.4226 18 17.251 18Z" stroke="black" stroke-width="1.5" stroke-linecap="round" stroke-linejoin="round"/>
<path d="M18.525 10.7L18.967 12.153C19.0399 12.3941 19.2017 12.5986 19.4197 12.725C19.6376 12.8515 19.8954 12.8904 20.141 12.834L21.613 12.493C21.8921 12.4297 22.1841 12.4575 22.4463 12.5724C22.7084 12.6873 22.9267 12.8832 23.0693 13.1314C23.2118 13.3796 23.271 13.6669 23.2382 13.9512C23.2054 14.2355 23.0823 14.5018 22.887 14.711L21.857 15.822C21.6849 16.007 21.5893 16.2503 21.5893 16.503C21.5893 16.7557 21.6849 16.999 21.857 17.184L22.887 18.295C23.0823 18.5042 23.2054 18.7705 23.2382 19.0548C23.271 19.3391 23.2118 19.6264 23.0693 19.8746C22.9267 20.1227 22.7084 20.3187 22.4463 20.4336C22.1841 20.5485 21.8921 20.5763 21.613 20.513L20.141 20.172C19.8954 20.1156 19.6376 20.1545 19.4197 20.2809C19.2017 20.4074 19.0399 20.6118 18.967 20.853L18.525 22.3C18.4429 22.574 18.2745 22.8143 18.045 22.9851C17.8155 23.1559 17.5371 23.2481 17.251 23.2481C16.9649 23.2481 16.6865 23.1559 16.4569 22.9851C16.2274 22.8143 16.0591 22.574 15.977 22.3L15.534 20.847C15.4613 20.6059 15.2997 20.4014 15.0819 20.275C14.8641 20.1486 14.6064 20.1096 14.361 20.166L12.888 20.507C12.6089 20.5703 12.3168 20.5425 12.0547 20.4276C11.7926 20.3127 11.5743 20.1167 11.4317 19.8686C11.2892 19.6204 11.23 19.3331 11.2628 19.0488C11.2956 18.7645 11.4187 18.4982 11.614 18.289L12.645 17.178C12.8171 16.993 12.9127 16.7497 12.9127 16.497C12.9127 16.2443 12.8171 16.001 12.645 15.816L11.614 14.705C11.4187 14.4958 11.2956 14.2295 11.2628 13.9452C11.23 13.6609 11.2892 13.3736 11.4317 13.1254C11.5743 12.8772 11.7926 12.6813 12.0547 12.5664C12.3168 12.4515 12.6089 12.4237 12.888 12.487L14.361 12.828C14.6064 12.8844 14.8641 12.8454 15.0819 12.719C15.2997 12.5925 15.4613 12.3881 15.534 12.147L15.977 10.694C16.0598 10.4201 16.2287 10.1803 16.4586 10.01C16.6885 9.83976 16.9671 9.74817 17.2532 9.74884C17.5393 9.74952 17.8176 9.84242 18.0467 10.0138C18.2758 10.1851 18.4435 10.4258 18.525 10.7V10.7Z" stroke="black" stroke-width="1.5" stroke-linecap="round" stroke-linejoin="round"/>
</svg>
