<svg width="24" height="24" viewBox="0 0 24 24" fill="none" xmlns="http://www.w3.org/2000/svg">
<g clip-path="url(#clip0_3751_49938)">
<path d="M0.75 23.25V0.75" stroke="black" stroke-width="1.5" stroke-linecap="round" stroke-linejoin="round"/>
<path d="M0.75 20.293L3.904 19.323C5.21051 18.9207 6.58781 18.8019 7.94392 18.9743C9.30003 19.1468 10.6037 19.6065 11.768 20.323C12.9046 21.0222 14.1743 21.4773 15.4964 21.6591C16.8184 21.8409 18.1638 21.7455 19.447 21.379L22.434 20.526C22.669 20.4587 22.8758 20.3167 23.023 20.1215C23.1702 19.9263 23.2499 19.6885 23.25 19.444V3.63697C23.2498 3.4629 23.2093 3.29123 23.1316 3.13545C23.0539 2.97968 22.9412 2.84404 22.8022 2.73919C22.6632 2.63434 22.5019 2.56314 22.3308 2.53117C22.1596 2.49921 21.9834 2.50736 21.816 2.55497L19.447 3.23197C18.1638 3.59848 16.8184 3.69387 15.4964 3.51207C14.1743 3.33026 12.9046 2.87525 11.768 2.17597C10.6037 1.45955 9.30003 0.999763 7.94392 0.827318C6.58781 0.654873 5.21051 0.773736 3.904 1.17597L0.75 2.14497" stroke="black" stroke-width="1.5" stroke-linecap="round" stroke-linejoin="round"/>
<path d="M12 15.75C11.9258 15.75 11.8533 15.772 11.7917 15.8132C11.73 15.8544 11.6819 15.913 11.6535 15.9815C11.6252 16.05 11.6177 16.1254 11.6322 16.1982C11.6467 16.2709 11.6824 16.3377 11.7348 16.3902C11.7873 16.4426 11.8541 16.4783 11.9268 16.4928C11.9996 16.5073 12.075 16.4998 12.1435 16.4715C12.212 16.4431 12.2706 16.395 12.3118 16.3333C12.353 16.2717 12.375 16.1992 12.375 16.125C12.375 16.0255 12.3355 15.9302 12.2652 15.8598C12.1948 15.7895 12.0995 15.75 12 15.75Z" stroke="black" stroke-width="1.5" stroke-linecap="round" stroke-linejoin="round"/>
<path d="M12 12.75V6.75" stroke="black" stroke-width="1.5" stroke-linecap="round" stroke-linejoin="round"/>
</g>
<defs>
<clipPath id="clip0_3751_49938">
<rect width="24" height="24" fill="white"/>
</clipPath>
</defs>
</svg>
