<svg width="24" height="24" viewBox="0 0 24 24" fill="none" xmlns="http://www.w3.org/2000/svg">
<path d="M23.25 4.5C23.25 6.2 20.713 10.178 19.813 11.536C19.7788 11.5876 19.7324 11.6299 19.6778 11.6591C19.6233 11.6884 19.5624 11.7037 19.5005 11.7037C19.4386 11.7037 19.3777 11.6884 19.3232 11.6591C19.2686 11.6299 19.2222 11.5876 19.188 11.536C18.287 10.179 15.75 6.2 15.75 4.5C15.75 3.50544 16.1451 2.55161 16.8483 1.84835C17.5516 1.14509 18.5054 0.75 19.5 0.75C20.4946 0.75 21.4484 1.14509 22.1517 1.84835C22.8549 2.55161 23.25 3.50544 23.25 4.5V4.5Z" stroke="black" stroke-width="1.5" stroke-linecap="round" stroke-linejoin="round"/>
<path d="M19.5 4.125C19.5995 4.125 19.6948 4.16451 19.7652 4.23484C19.8355 4.30516 19.875 4.40054 19.875 4.5" stroke="black" stroke-width="1.5" stroke-linecap="round" stroke-linejoin="round"/>
<path d="M19.125 4.5C19.125 4.40054 19.1645 4.30516 19.2348 4.23484C19.3052 4.16451 19.4005 4.125 19.5 4.125" stroke="black" stroke-width="1.5" stroke-linecap="round" stroke-linejoin="round"/>
<path d="M19.5 4.875C19.4005 4.875 19.3052 4.83549 19.2348 4.76516C19.1645 4.69484 19.125 4.59946 19.125 4.5" stroke="black" stroke-width="1.5" stroke-linecap="round" stroke-linejoin="round"/>
<path d="M19.875 4.5C19.875 4.59946 19.8355 4.69484 19.7652 4.76516C19.6948 4.83549 19.5995 4.875 19.5 4.875" stroke="black" stroke-width="1.5" stroke-linecap="round" stroke-linejoin="round"/>
<path d="M5.25 12.375C5.34946 12.375 5.44484 12.4145 5.51516 12.4848C5.58549 12.5552 5.625 12.6505 5.625 12.75" stroke="black" stroke-width="1.5" stroke-linecap="round" stroke-linejoin="round"/>
<path d="M4.875 12.75C4.875 12.6505 4.91451 12.5552 4.98484 12.4848C5.05516 12.4145 5.15054 12.375 5.25 12.375" stroke="black" stroke-width="1.5" stroke-linecap="round" stroke-linejoin="round"/>
<path d="M5.25 13.125C5.15054 13.125 5.05516 13.0855 4.98484 13.0152C4.91451 12.9448 4.875 12.8495 4.875 12.75" stroke="black" stroke-width="1.5" stroke-linecap="round" stroke-linejoin="round"/>
<path d="M5.625 12.75C5.625 12.8495 5.58549 12.9448 5.51516 13.0152C5.44484 13.0855 5.34946 13.125 5.25 13.125" stroke="black" stroke-width="1.5" stroke-linecap="round" stroke-linejoin="round"/>
<path d="M5.25 8.25C6.44347 8.25 7.58807 8.72411 8.43198 9.56802C9.27589 10.4119 9.75 11.5565 9.75 12.75C9.75 14.671 7.062 18.326 5.841 19.888C5.77085 19.9778 5.68118 20.0504 5.57877 20.1003C5.47637 20.1503 5.36393 20.1762 5.25 20.1762C5.13607 20.1762 5.02363 20.1503 4.92123 20.1003C4.81882 20.0504 4.72915 19.9778 4.659 19.888C3.438 18.327 0.75 14.671 0.75 12.75C0.75 11.5565 1.22411 10.4119 2.06802 9.56802C2.91193 8.72411 4.05653 8.25 5.25 8.25V8.25Z" stroke="black" stroke-width="1.5" stroke-linecap="round" stroke-linejoin="round"/>
<path d="M5.25 23.25H14.25C14.6478 23.25 15.0294 23.092 15.3107 22.8107C15.592 22.5294 15.75 22.1478 15.75 21.75V17.25C15.75 16.8522 15.908 16.4706 16.1893 16.1893C16.4706 15.908 16.8522 15.75 17.25 15.75H20.25" stroke="black" stroke-width="1.5" stroke-linecap="round" stroke-linejoin="round"/>
</svg>
