<svg width="24" height="24" viewBox="0 0 24 24" fill="none" xmlns="http://www.w3.org/2000/svg">
<path d="M0.75 17.25C0.75076 16.1341 1.02804 15.0358 1.55706 14.0532C2.08607 13.0707 2.85033 12.2345 3.78149 11.6196C4.71265 11.0046 5.7817 10.63 6.89305 10.5292C8.00439 10.4284 9.12339 10.6046 10.15 11.042" stroke="black" stroke-width="1.5" stroke-linecap="round" stroke-linejoin="round"/>
<path d="M7.5 9C9.77817 9 11.625 7.15317 11.625 4.875C11.625 2.59683 9.77817 0.75 7.5 0.75C5.22183 0.75 3.375 2.59683 3.375 4.875C3.375 7.15317 5.22183 9 7.5 9Z" stroke="black" stroke-width="1.5" stroke-linecap="round" stroke-linejoin="round"/>
<path d="M17.25 18C18.0784 18 18.75 17.3284 18.75 16.5C18.75 15.6716 18.0784 15 17.25 15C16.4216 15 15.75 15.6716 15.75 16.5C15.75 17.3284 16.4216 18 17.25 18Z" stroke="black" stroke-width="1.5" stroke-linecap="round" stroke-linejoin="round"/>
<path d="M18.524 10.7L18.966 12.153C19.0389 12.3941 19.2007 12.5986 19.4187 12.725C19.6366 12.8515 19.8944 12.8904 20.14 12.834L21.612 12.493C21.891 12.4301 22.1828 12.4582 22.4447 12.5732C22.7065 12.6882 22.9247 12.884 23.0672 13.1319C23.2098 13.3799 23.2692 13.6669 23.2367 13.9511C23.2043 14.2352 23.0817 14.5015 22.887 14.711L21.856 15.822C21.6839 16.007 21.5883 16.2503 21.5883 16.503C21.5883 16.7557 21.6839 16.999 21.856 17.184L22.887 18.295C23.0817 18.5044 23.2043 18.7707 23.2367 19.0549C23.2692 19.339 23.2098 19.6261 23.0672 19.8741C22.9247 20.122 22.7065 20.3178 22.4447 20.4328C22.1828 20.5478 21.891 20.5759 21.612 20.513L20.14 20.172C19.8944 20.1156 19.6366 20.1545 19.4187 20.2809C19.2007 20.4074 19.0389 20.6118 18.966 20.853L18.524 22.3C18.4419 22.574 18.2735 22.8143 18.044 22.9851C17.8145 23.1559 17.5361 23.2481 17.25 23.2481C16.9639 23.2481 16.6855 23.1559 16.456 22.9851C16.2265 22.8143 16.0581 22.574 15.976 22.3L15.534 20.847C15.4611 20.6058 15.2993 20.4014 15.0813 20.2749C14.8634 20.1485 14.6056 20.1096 14.36 20.166L12.888 20.507C12.609 20.5699 12.3172 20.5418 12.0553 20.4268C11.7935 20.3118 11.5753 20.116 11.4328 19.8681C11.2902 19.6201 11.2308 19.333 11.2633 19.0489C11.2957 18.7647 11.4183 18.4984 11.613 18.289L12.644 17.178C12.8161 16.993 12.9117 16.7497 12.9117 16.497C12.9117 16.2443 12.8161 16.001 12.644 15.816L11.613 14.705C11.4183 14.4955 11.2957 14.2292 11.2633 13.9451C11.2308 13.6609 11.2902 13.3739 11.4328 13.1259C11.5753 12.878 11.7935 12.6822 12.0553 12.5672C12.3172 12.4522 12.609 12.4241 12.888 12.487L14.36 12.828C14.6056 12.8844 14.8634 12.8455 15.0813 12.719C15.2993 12.5926 15.4611 12.3881 15.534 12.147L15.976 10.694C16.0588 10.4201 16.2277 10.1803 16.4576 10.01C16.6875 9.83976 16.9661 9.74817 17.2522 9.74884C17.5383 9.74952 17.8166 9.84242 18.0457 10.0138C18.2748 10.1851 18.4425 10.4258 18.524 10.7Z" stroke="black" stroke-width="1.5" stroke-linecap="round" stroke-linejoin="round"/>
</svg>
