<svg width="24" height="24" viewBox="0 0 24 24" fill="none" xmlns="http://www.w3.org/2000/svg">
<path d="M21.3155 12.1843C20.1604 10.9544 18.6096 10.1022 17.0053 9.77854C16.2995 9.58436 15.5936 9.4549 14.877 9.39017C16.6845 7.24336 16.3529 3.99618 14.2353 2.18379C12.1069 0.360623 8.8877 0.695051 7.09091 2.83107C5.28342 4.97788 5.61497 8.22507 7.73262 10.0375C8.11764 10.3611 8.50267 10.62 8.8877 10.7495V12.1735L7.86096 11.2026C6.96256 10.2964 5.47593 10.2964 4.51337 11.2026C3.61497 12.1087 3.5508 13.5436 4.4492 14.4497L7.41176 17.9558C7.5401 18.862 7.86096 19.7143 8.31016 20.491C8.63101 21.0736 9.08021 21.6561 9.52941 22.1092V23.339C9.52941 23.7274 9.78609 23.9863 10.1711 23.9863H18.9305C19.2513 23.9863 19.5722 23.6627 19.5722 23.339V21.6561C20.7914 20.1674 21.4438 18.2795 21.4438 16.3916V12.6266C21.508 12.3784 21.4438 12.249 21.3155 12.1843ZM7.15508 6.07826C7.15508 3.93145 8.89839 2.24852 11.016 2.31325C13.1444 2.31325 14.8128 4.07169 14.7487 6.20772C14.7487 7.37282 14.2353 8.41925 13.3369 9.13126V5.88408C13.3048 5.3231 13.0588 4.79449 12.6524 4.40612C12.246 4.01775 11.7005 3.80199 11.1444 3.80199C9.9893 3.73727 8.95187 4.70818 8.95187 5.88408V9.26072C7.86096 8.61344 7.21925 7.37282 7.15508 6.07826ZM20.2246 16.3376C20.2888 18.0206 19.7112 19.6496 18.6203 20.9441C18.492 21.0736 18.3636 21.203 18.3636 21.3972V22.7565H10.8877V21.8503C10.8877 21.6561 10.7594 21.4619 10.631 21.3325C10.1818 20.9441 9.79679 20.491 9.47593 19.9085C9.09091 19.2612 8.83422 18.4845 8.70588 17.6969C8.70588 17.5675 8.64171 17.438 8.57754 17.3086L5.48663 13.6083C5.29412 13.4141 5.16577 13.1552 5.16577 12.8315C5.16577 12.5726 5.29412 12.249 5.48663 12.0548C5.93583 11.6664 6.57754 11.6664 7.02674 12.0548L8.89839 13.9427V15.8953L10.1176 15.2481V5.88408C10.1818 5.43098 10.5668 5.04261 11.0802 5.10734C11.5294 5.10734 11.9786 5.43098 11.9786 5.88408V13.3494L13.262 13.6083V10.62C13.3262 10.5553 13.3904 10.5553 13.4545 10.4905C13.9037 10.4905 14.3529 10.5553 14.8021 10.62V13.9319L15.8289 14.1261V10.7495L16.5989 10.9436C16.9198 11.0084 17.2406 11.1378 17.5615 11.2673V14.5145L18.5882 14.7087V11.7204C19.1658 11.9793 19.6791 12.3677 20.1283 12.8208L20.2246 16.3376Z" fill="black"/>
<path d="M18.0963 2.64771C19.1123 3.34892 19.7754 4.52482 19.7754 5.86253C19.7754 7.20024 19.1016 8.37613 18.0963 9.08814" stroke="black" stroke-miterlimit="10" stroke-linecap="round"/>
<path d="M17.1551 3.88831C17.7754 4.31983 18.1925 5.04262 18.1925 5.86251C18.1925 6.6824 17.7861 7.40519 17.1551 7.83671" stroke="black" stroke-miterlimit="10" stroke-linecap="round"/>
<path d="M3.67914 9.07733C2.6738 8.3869 2 7.20022 2 5.86251C2 4.5248 2.6738 3.34891 3.67914 2.6369" stroke="black" stroke-miterlimit="10" stroke-linecap="round"/>
<path d="M4.63102 7.83671C4.01069 7.40519 3.59358 6.6824 3.59358 5.86251C3.59358 5.04262 4 4.31983 4.63102 3.88831" stroke="black" stroke-miterlimit="10" stroke-linecap="round"/>
</svg>
