<svg width="24" height="24" viewBox="0 0 24 24" fill="none" xmlns="http://www.w3.org/2000/svg">
<path d="M4.20833 10.4995V9.63862V1.94098H19.8667V10.4326" stroke="black" stroke-miterlimit="10"/>
<path d="M4.20833 6.67151L2 8.84457V21.9999H22V8.84457L19.8667 6.78016" stroke="black" stroke-miterlimit="10"/>
<path d="M2 8.8446L11.9667 16.2999L22 8.8446" stroke="black" stroke-miterlimit="10"/>
<path d="M2 22L9.63333 14.5531" stroke="black" stroke-miterlimit="10"/>
<path d="M22 21.9999L14.375 14.5112" stroke="black" stroke-miterlimit="10"/>
<path d="M7.50001 8.94488L9.93333 5.48472H7.71666V4.77429H11.05V5.27577L8.64999 8.71086H11.0833V9.42129H7.49167L7.50001 8.94488Z" fill="black"/>
<path d="M12.675 4.74927V9.42134H11.8V4.74927H12.675Z" fill="black"/>
<path d="M13.6667 4.80774C14.1052 4.74221 14.5483 4.71146 14.9917 4.71579C15.4886 4.678 15.9832 4.81384 16.3917 5.10025C16.5418 5.22515 16.6618 5.38252 16.7426 5.56056C16.8234 5.73861 16.863 5.93271 16.8583 6.12828C16.867 6.32317 16.8359 6.51778 16.7672 6.70026C16.6984 6.88275 16.5933 7.04928 16.4583 7.18973C16.037 7.54244 15.4979 7.72167 14.95 7.69121C14.8087 7.70534 14.6663 7.70534 14.525 7.69121V9.45474H13.6917L13.6667 4.80774ZM14.5 6.98915C14.6413 7.00435 14.7837 7.00435 14.925 6.98915C15.575 6.98915 15.975 6.67155 15.975 6.15336C15.975 5.63517 15.6083 5.35934 15.0083 5.35934C14.838 5.3581 14.6679 5.3721 14.5 5.40115V6.98915Z" fill="black"/>
</svg>
