<svg width="20" height="20" viewBox="0 0 20 20" fill="none" xmlns="http://www.w3.org/2000/svg">
<path d="M14.1792 8.79297H5.81046V13.1286H14.1792V8.79297Z" stroke="#45485E" stroke-width="1.5" stroke-miterlimit="10"/>
<path d="M12.8534 8.64864V8.79455H7.13618C7.12582 8.74244 7.12582 8.70075 7.12582 8.64864C7.12582 7.05406 8.41013 5.76172 9.9948 5.76172C11.5691 5.76172 12.8534 7.05406 12.8534 8.64864Z" stroke="#45485E" stroke-width="1.5" stroke-miterlimit="10"/>
<path d="M17.9285 14.7138C16.3335 17.4131 13.4127 19.2162 10.0673 19.2162C5.00259 19.2162 0.901093 15.089 0.901093 9.99261C0.901093 9.72164 0.91145 9.44024 0.942522 9.17969" stroke="#45485E" stroke-width="1.5" stroke-miterlimit="10"/>
<path d="M18.9953 12.0371C19.1507 11.3805 19.2232 10.6927 19.2232 9.99438C19.2232 4.9084 15.1217 0.78125 10.0673 0.78125C6.27654 0.78125 3.0347 3.08453 1.6261 6.37791" stroke="#45485E" stroke-width="1.5" stroke-miterlimit="10"/>
<path d="M18.4775 17.7883L18.2496 14.2656L14.8939 15.0681" stroke="#45485E" stroke-width="1.5" stroke-miterlimit="10"/>
<path d="M0.766449 3.08594L1.32574 6.74409L4.88867 5.51429" stroke="#45485E" stroke-width="1.5" stroke-miterlimit="10"/>
</svg>
