<svg width="20" height="20" viewBox="0 0 20 20" fill="none" xmlns="http://www.w3.org/2000/svg">
<path fill-rule="evenodd" clip-rule="evenodd" d="M4.16666 3.33464C3.94564 3.33464 3.73368 3.42243 3.5774 3.57871C3.42112 3.73499 3.33332 3.94695 3.33332 4.16797V15.8346C3.33332 16.0557 3.42112 16.2676 3.5774 16.4239C3.73368 16.5802 3.94564 16.668 4.16666 16.668H7.49999C7.96023 16.668 8.33332 17.0411 8.33332 17.5013C8.33332 17.9615 7.96023 18.3346 7.49999 18.3346H4.16666C3.50361 18.3346 2.86773 18.0712 2.39889 17.6024C1.93005 17.1336 1.66666 16.4977 1.66666 15.8346V4.16797C1.66666 3.50493 1.93005 2.86904 2.39889 2.4002C2.86773 1.93136 3.50362 1.66797 4.16666 1.66797H7.49999C7.96023 1.66797 8.33332 2.04106 8.33332 2.5013C8.33332 2.96154 7.96023 3.33464 7.49999 3.33464H4.16666Z" fill="#45485E"/>
<path fill-rule="evenodd" clip-rule="evenodd" d="M12.7441 5.24408C13.0695 4.91864 13.5972 4.91864 13.9226 5.24408L18.0893 9.41074C18.4147 9.73618 18.4147 10.2638 18.0893 10.5893L13.9226 14.7559C13.5972 15.0814 13.0695 15.0814 12.7441 14.7559C12.4186 14.4305 12.4186 13.9028 12.7441 13.5774L16.3215 10L12.7441 6.42259C12.4186 6.09715 12.4186 5.56951 12.7441 5.24408Z" fill="#45485E"/>
<path fill-rule="evenodd" clip-rule="evenodd" d="M6.66666 10.0013C6.66666 9.54106 7.03975 9.16797 7.49999 9.16797H17.5C17.9602 9.16797 18.3333 9.54106 18.3333 10.0013C18.3333 10.4615 17.9602 10.8346 17.5 10.8346H7.49999C7.03975 10.8346 6.66666 10.4615 6.66666 10.0013Z" fill="#45485E"/>
</svg>
