<svg width="20" height="20" viewBox="0 0 20 20" fill="none" xmlns="http://www.w3.org/2000/svg">
<path d="M5.83333 2.5H4.16667C3.24583 2.5 2.5 3.24583 2.5 4.16667V15.8333C2.5 16.7542 3.24583 17.5 4.16667 17.5H14.1667C15.0875 17.5 15.8333 16.7542 15.8333 15.8333V15" stroke="#45485E" stroke-width="1.5" stroke-linecap="round" stroke-linejoin="round"/>
<path d="M10.8333 14.1678L13.4583 13.8436C13.6425 13.8211 13.8141 13.7369 13.9458 13.6061L17.805 9.74693C18.5091 9.04276 18.5091 7.90109 17.805 7.19609C17.1008 6.49193 15.9591 6.49193 15.2541 7.19609L11.4541 10.9961C11.3266 11.1236 11.2441 11.2886 11.2183 11.4678L10.8333 14.1678V14.1678Z" stroke="#45485E" stroke-width="1.5" stroke-linecap="round" stroke-linejoin="round"/>
<path d="M11.25 3.75H7.08331C6.39331 3.75 5.83331 3.19 5.83331 2.5C5.83331 1.81 6.39331 1.25 7.08331 1.25H11.25C11.94 1.25 12.5 1.81 12.5 2.5C12.5 3.19 11.94 3.75 11.25 3.75Z" stroke="#45485E" stroke-width="1.5" stroke-linecap="round" stroke-linejoin="round"/>
<path d="M5.83331 6.66797H10.8333" stroke="#45485E" stroke-width="1.5" stroke-linecap="round" stroke-linejoin="round"/>
<path d="M5.83331 10H9.16665" stroke="#45485E" stroke-width="1.5" stroke-linecap="round" stroke-linejoin="round"/>
<path d="M12.5 2.5H14.1667C15.0875 2.5 15.8333 3.24583 15.8333 4.16667" stroke="#45485E" stroke-width="1.5" stroke-linecap="round" stroke-linejoin="round"/>
</svg>
