<svg width="20" height="20" viewBox="0 0 20 20" fill="none" xmlns="http://www.w3.org/2000/svg">
<g clip-path="url(#clip0_4534_50620)">
<path d="M13.975 5.1487C13.975 8.0237 10.2833 10.482 10.2833 10.482C10.2833 10.482 6.59167 8.0237 6.59167 5.1487C6.59167 4.1737 6.98334 3.23203 7.67501 2.54036C8.36667 1.8487 9.30834 1.45703 10.2833 1.45703C11.2583 1.45703 12.2 1.8487 12.8917 2.54036C13.5833 3.23203 13.975 4.16536 13.975 5.1487Z" stroke="#45485E" stroke-width="1.2" stroke-linecap="round" stroke-linejoin="round"/>
<path d="M10.2833 6.38073C10.9667 6.38073 11.5167 5.83073 11.5167 5.1474C11.5167 4.46406 10.9667 3.91406 10.2833 3.91406C9.59999 3.91406 9.04999 4.46406 9.04999 5.1474C9.05832 5.8224 9.60832 6.38073 10.2833 6.38073Z" stroke="#45485E" stroke-width="1.2" stroke-linecap="round" stroke-linejoin="round"/>
<path d="M7.2583 11.8828H13.5" stroke="#45485E" stroke-width="1.2" stroke-linecap="round" stroke-linejoin="round"/>
<path d="M19.375 14.2224C19.375 16.0141 17.075 17.5474 17.075 17.5474C17.075 17.5474 14.775 16.0141 14.775 14.2224C14.775 13.6141 15.0166 13.0224 15.45 12.5891C15.8833 12.1557 16.4666 11.9141 17.0833 11.9141C17.6916 11.9141 18.2833 12.1557 18.7166 12.5891C19.1333 13.0307 19.375 13.6141 19.375 14.2224Z" stroke="#45485E" stroke-linecap="round" stroke-linejoin="round"/>
<path d="M17.075 14.9982C17.5 14.9982 17.8416 14.6565 17.8416 14.2315C17.8416 13.8065 17.5 13.4648 17.075 13.4648C16.65 13.4648 16.3083 13.8065 16.3083 14.2315C16.3083 14.6482 16.65 14.9982 17.075 14.9982Z" stroke="#45485E" stroke-linecap="round" stroke-linejoin="round"/>
<path d="M15.1833 19.0234H19.075" stroke="#45485E" stroke-linecap="round" stroke-linejoin="round"/>
<path d="M5.94165 14.2224C5.94165 16.0141 3.64165 17.5474 3.64165 17.5474C3.64165 17.5474 1.33331 16.0141 1.33331 14.2224C1.33331 13.6141 1.57498 13.0224 2.00831 12.5891C2.44165 12.1557 3.02498 11.9141 3.64165 11.9141C4.24998 11.9141 4.84165 12.1557 5.27498 12.5891C5.69998 13.0307 5.94165 13.6141 5.94165 14.2224Z" stroke="#45485E" stroke-linecap="round" stroke-linejoin="round"/>
<path d="M3.6333 14.9982C4.0583 14.9982 4.39997 14.6565 4.39997 14.2315C4.39997 13.8065 4.0583 13.4648 3.6333 13.4648C3.2083 13.4648 2.86664 13.8065 2.86664 14.2315C2.86664 14.6482 3.21664 14.9982 3.6333 14.9982Z" stroke="#45485E" stroke-linecap="round" stroke-linejoin="round"/>
<path d="M1.75 19.0234H5.64167" stroke="#45485E" stroke-linecap="round" stroke-linejoin="round"/>
</g>
<defs>
<clipPath id="clip0_4534_50620">
<rect width="19.0417" height="18.6917" fill="white" transform="translate(0.833313 0.832031)"/>
</clipPath>
</defs>
</svg>
