<svg width="20" height="20" viewBox="0 0 20 20" fill="none" xmlns="http://www.w3.org/2000/svg">
<g clip-path="url(#clip0_4534_50648)">
<path d="M13.5892 4.79173V9.65115C13.3504 9.65115 13.1202 9.75186 12.9581 9.91132C12.7961 10.0708 12.6937 10.2974 12.6937 10.5324V10.5995C12.6937 10.7422 12.6511 10.8849 12.5658 11.0024C12.4891 11.1199 12.3782 11.2122 12.2417 11.271H12.2076C12.0712 11.3297 11.9177 11.3465 11.7812 11.3213C11.6362 11.2961 11.4998 11.2206 11.3974 11.1283L11.3719 11.1031C11.2951 11.0192 11.1842 10.952 11.0819 10.9101C10.9796 10.8681 10.8602 10.8429 10.7322 10.8429C10.6214 10.8429 10.502 10.8681 10.3911 10.9101C10.2802 10.952 10.1779 11.0192 10.0926 11.1031C10.0073 11.187 9.94764 11.2877 9.905 11.3885C9.85383 11.4892 9.83678 11.6067 9.83678 11.7326C9.83678 11.8417 9.85383 11.9592 9.905 12.0767C9.94764 12.1774 10.0073 12.2781 10.0926 12.362L10.1182 12.3872C10.2205 12.4879 10.2973 12.6222 10.3144 12.7649C10.3399 12.9075 10.3314 13.0586 10.2632 13.1845C10.212 13.3272 10.1182 13.4447 9.99881 13.5286C9.87089 13.6125 9.73444 13.6629 9.58093 13.6629H9.54682C9.30802 13.6629 9.07776 13.7636 8.91572 13.9231C8.75369 14.0825 8.65988 14.3008 8.65135 14.5106H3.71348C3.33824 14.5106 2.98005 14.3679 2.71568 14.1077C2.4513 13.8475 2.29779 13.4866 2.29779 13.1258V2.01372C2.29779 1.64443 2.44277 1.29194 2.71568 1.03176C2.98005 0.771584 3.34677 0.628906 3.71348 0.628906H9.35919L13.5892 4.79173Z" stroke="#45485E" stroke-width="1.5" stroke-linecap="round" stroke-linejoin="round"/>
<path d="M9.35919 0.628906V4.79173H13.5892" stroke="#45485E" stroke-width="1.5" stroke-linecap="round" stroke-linejoin="round"/>
<path d="M10.7663 8.26562H5.12915" stroke="#45485E" stroke-width="1.5" stroke-linecap="round" stroke-linejoin="round"/>
<path d="M9.73441 11.0273H5.12915" stroke="#45485E" stroke-width="1.5" stroke-linecap="round" stroke-linejoin="round"/>
<path d="M6.53631 5.48828H5.82847H5.12915" stroke="#45485E" stroke-width="1.5" stroke-linecap="round" stroke-linejoin="round"/>
<path d="M18.2627 13.8829C18.0921 13.715 17.8618 13.6227 17.6316 13.6227H17.5548C17.4098 13.6227 17.2649 13.5807 17.1455 13.5052C17.0261 13.4213 16.9323 13.3122 16.8811 13.1779V13.1443C16.8214 13.01 16.8043 12.8674 16.8299 12.7247C16.847 12.582 16.9237 12.4561 17.0261 12.347L17.0516 12.3218C17.1284 12.2379 17.1966 12.1372 17.2393 12.0281C17.2904 11.9274 17.3075 11.8099 17.3075 11.6924C17.3075 11.5749 17.2904 11.4574 17.2393 11.3483C17.1966 11.2392 17.1284 11.1384 17.0516 11.0629C16.9664 10.979 16.864 10.9118 16.7532 10.8699C16.6508 10.8279 16.5314 10.8027 16.412 10.8027C16.2926 10.8027 16.1732 10.8279 16.0624 10.8699C15.9515 10.9118 15.8492 10.979 15.7724 11.0629L15.7468 11.0797C15.6445 11.1804 15.508 11.2559 15.363 11.2811C15.2181 11.2979 15.0646 11.2895 14.9366 11.2224C14.8002 11.1636 14.6893 11.0797 14.6126 10.9622C14.5273 10.8447 14.4846 10.702 14.4846 10.5593V10.5258C14.4846 10.2908 14.3908 10.0642 14.2203 9.90471C14.0497 9.74524 13.828 9.64453 13.5892 9.64453C13.3504 9.64453 13.1201 9.74524 12.9581 9.90471C12.796 10.0642 12.6937 10.2908 12.6937 10.5258V10.5929C12.6937 10.7356 12.6511 10.8783 12.5658 10.9958C12.489 11.1133 12.3782 11.2056 12.2417 11.2643H12.2076C12.0711 11.3231 11.9176 11.3399 11.7812 11.3147C11.6362 11.2895 11.4997 11.214 11.3974 11.1217L11.3718 11.0965C11.2951 11.0126 11.1842 10.9454 11.0819 10.9034C10.9795 10.8615 10.8601 10.8363 10.7322 10.8363C10.6213 10.8363 10.5019 10.8615 10.3911 10.9034C10.2802 10.9454 10.1779 11.0126 10.0926 11.0965C10.0073 11.1804 9.9476 11.2811 9.90496 11.3818C9.85379 11.4826 9.83674 11.6 9.83674 11.7259C9.83674 11.835 9.85379 11.9525 9.90496 12.07C9.9476 12.1708 10.0073 12.2715 10.0926 12.3554L10.1182 12.3806C10.2205 12.4813 10.2973 12.6156 10.3143 12.7583C10.3399 12.9009 10.3314 13.052 10.2631 13.1779C10.212 13.3206 10.1182 13.4381 9.99877 13.522C9.87085 13.6059 9.7344 13.6563 9.58089 13.6563H9.54677C9.30798 13.6563 9.07772 13.757 8.91568 13.9165C8.75365 14.0759 8.65983 14.2941 8.65131 14.504V14.5375C8.65131 14.7725 8.74512 14.9991 8.91568 15.1586C9.08625 15.3264 9.30798 15.4188 9.54677 15.4188H9.62353C9.76851 15.4188 9.91349 15.4607 10.0329 15.5363C10.1523 15.6118 10.2461 15.7293 10.2973 15.8552C10.357 15.9979 10.374 16.1405 10.3484 16.2748C10.3314 16.4175 10.2546 16.5518 10.1523 16.6525L10.1267 16.7029C10.0499 16.7868 9.98172 16.8875 9.93907 16.9882C9.8879 17.0973 9.87085 17.2064 9.87085 17.3323C9.87085 17.4498 9.8879 17.5589 9.93907 17.6764C9.98172 17.7771 10.0499 17.8778 10.1267 17.9618C10.212 18.0457 10.3143 18.1045 10.4252 18.1548C10.5275 18.1968 10.6469 18.2136 10.7663 18.2136C10.8857 18.2136 11.0051 18.1968 11.116 18.1548C11.2268 18.1045 11.3292 18.0457 11.4059 17.9618L11.4315 17.9366C11.5339 17.8359 11.6703 17.7687 11.8153 17.7436C11.9603 17.7184 12.1138 17.7352 12.2417 17.7939C12.3867 17.8527 12.5061 17.9366 12.5914 18.0541C12.6766 18.1716 12.7278 18.3143 12.7363 18.457V18.4989C12.7363 18.7339 12.8302 18.9605 13.0007 19.12C13.1713 19.2794 13.393 19.3802 13.6318 19.3802C13.8706 19.3802 14.1009 19.2878 14.2629 19.12C14.4249 18.9521 14.5273 18.7339 14.5273 18.4989V18.4234C14.5273 18.2807 14.5699 18.1464 14.6552 18.0289C14.732 17.9114 14.8428 17.8107 14.9793 17.7604C15.1157 17.7016 15.2607 17.6848 15.4057 17.71C15.5507 17.7352 15.6871 17.8107 15.7895 17.903L15.815 17.9282C15.8918 18.0121 15.9941 18.0709 16.105 18.1212C16.2073 18.1632 16.3267 18.18 16.4547 18.18C16.5655 18.18 16.6849 18.1632 16.7958 18.1212C16.9067 18.0709 17.009 18.0121 17.0943 17.9282C17.1796 17.8443 17.2393 17.7436 17.2819 17.6429C17.3331 17.5337 17.3501 17.4246 17.3501 17.2987C17.3501 17.1812 17.3331 17.0721 17.2819 16.9546C17.2393 16.8539 17.1796 16.7532 17.0943 16.6693L17.0687 16.6441C16.9664 16.5434 16.8896 16.4091 16.8726 16.2664C16.847 16.1238 16.8555 15.9727 16.9237 15.8468C16.9834 15.7125 17.0687 15.6034 17.1881 15.5279C17.3075 15.4523 17.4525 15.4104 17.5975 15.4104H17.6401C17.8704 15.4104 18.1092 15.3097 18.2712 15.1502C18.4332 14.9907 18.5356 14.7641 18.5356 14.5291C18.527 14.2857 18.4332 14.0507 18.2627 13.8829ZM13.5892 15.8384C12.8472 15.8384 12.2417 15.2509 12.2417 14.5123V14.504C12.2502 13.7822 12.8472 13.1947 13.5806 13.1863H13.5892C14.3311 13.1863 14.9366 13.7822 14.9366 14.5123C14.9366 15.2509 14.3311 15.8384 13.5892 15.8384Z" stroke="#45485E" stroke-width="1.5" stroke-linecap="round" stroke-linejoin="round"/>
<path d="M14.9367 14.5097C14.9367 15.2482 14.3312 15.8357 13.5892 15.8357C12.8473 15.8357 12.2418 15.2482 12.2418 14.5097V14.5013C12.2503 13.7795 12.8473 13.192 13.5807 13.1836H13.5892C14.3312 13.1836 14.9367 13.7795 14.9367 14.5097Z" stroke="#45485E" stroke-width="1.5" stroke-linecap="round" stroke-linejoin="round"/>
</g>
<defs>
<clipPath id="clip0_4534_50648">
<rect width="17.5" height="20" fill="white" transform="translate(1.66669)"/>
</clipPath>
</defs>
</svg>
