<svg width="20" height="20" viewBox="0 0 20 20" fill="none" xmlns="http://www.w3.org/2000/svg">
<g clip-path="url(#clip0_4534_50615)">
<path d="M0.625 14.3737C0.625633 13.4437 0.856703 12.5285 1.29755 11.7097C1.73839 10.8909 2.37527 10.1941 3.15124 9.68166C3.92721 9.16919 4.81808 8.857 5.7442 8.773C6.67033 8.68901 7.60283 8.83583 8.45833 9.20033" stroke="#45485E" stroke-width="1.5" stroke-linecap="round" stroke-linejoin="round"/>
<path d="M6.25 7.5C8.14848 7.5 9.6875 5.96098 9.6875 4.0625C9.6875 2.16402 8.14848 0.625 6.25 0.625C4.35152 0.625 2.8125 2.16402 2.8125 4.0625C2.8125 5.96098 4.35152 7.5 6.25 7.5Z" stroke="#45485E" stroke-width="1.5" stroke-linecap="round" stroke-linejoin="round"/>
<path d="M14.375 15C15.0654 15 15.625 14.4404 15.625 13.75C15.625 13.0596 15.0654 12.5 14.375 12.5C13.6846 12.5 13.125 13.0596 13.125 13.75C13.125 14.4404 13.6846 15 14.375 15Z" stroke="#45485E" stroke-width="1.5" stroke-linecap="round" stroke-linejoin="round"/>
<path d="M15.4367 8.91762L15.805 10.1285C15.8658 10.3294 16.0006 10.4998 16.1822 10.6052C16.3639 10.7105 16.5787 10.743 16.7833 10.696L18.01 10.4118C18.2425 10.3594 18.4857 10.3828 18.7039 10.4786C18.9221 10.5744 19.1039 10.7376 19.2227 10.9442C19.3415 11.1508 19.391 11.3901 19.3639 11.6269C19.3369 11.8637 19.2348 12.0856 19.0725 12.2601L18.2133 13.186C18.0699 13.3401 17.9902 13.5429 17.9902 13.7535C17.9902 13.964 18.0699 14.1668 18.2133 14.321L19.0725 15.2468C19.2348 15.4213 19.3369 15.6432 19.3639 15.88C19.391 16.1168 19.3415 16.3561 19.2227 16.5627C19.1039 16.7693 18.9221 16.9325 18.7039 17.0283C18.4857 17.1241 18.2425 17.1475 18.01 17.0951L16.7833 16.811C16.5787 16.7639 16.3639 16.7964 16.1822 16.9017C16.0006 17.0071 15.8658 17.1775 15.805 17.3785L15.4367 18.5843C15.3682 18.8126 15.228 19.0129 15.0367 19.1552C14.8454 19.2975 14.6134 19.3744 14.375 19.3744C14.1366 19.3744 13.9045 19.2975 13.7133 19.1552C13.522 19.0129 13.3818 18.8126 13.3133 18.5843L12.945 17.3735C12.8842 17.1725 12.7494 17.0021 12.5678 16.8967C12.3861 16.7914 12.1713 16.7589 11.9667 16.806L10.74 17.0901C10.5075 17.1425 10.2643 17.1191 10.0461 17.0233C9.82788 16.9275 9.64607 16.7643 9.52729 16.5577C9.40851 16.3511 9.35902 16.1118 9.38605 15.875C9.41308 15.6382 9.51521 15.4163 9.6775 15.2418L10.5367 14.316C10.6801 14.1618 10.7598 13.959 10.7598 13.7485C10.7598 13.5379 10.6801 13.3351 10.5367 13.181L9.6775 12.2551C9.51521 12.0806 9.41308 11.8587 9.38605 11.6219C9.35902 11.3851 9.40851 11.1458 9.52729 10.9392C9.64607 10.7326 9.82788 10.5694 10.0461 10.4736C10.2643 10.3778 10.5075 10.3544 10.74 10.4068L11.9667 10.691C12.1713 10.738 12.3861 10.7055 12.5678 10.6002C12.7494 10.4948 12.8842 10.3244 12.945 10.1235L13.3133 8.91262C13.3823 8.68441 13.523 8.48454 13.7146 8.34265C13.9062 8.20077 14.1385 8.12444 14.3769 8.125C14.6153 8.12556 14.8471 8.20298 15.038 8.34577C15.229 8.48855 15.3688 8.68909 15.4367 8.91762Z" stroke="#45485E" stroke-width="1.5" stroke-linecap="round" stroke-linejoin="round"/>
</g>
<defs>
<clipPath id="clip0_4534_50615">
<rect width="20" height="20" fill="white"/>
</clipPath>
</defs>
</svg>
