<svg width="20" height="20" viewBox="0 0 20 20" fill="none" xmlns="http://www.w3.org/2000/svg">
<path d="M17.7629 10.1523C16.8003 9.12739 15.508 8.41718 14.1711 8.14748C13.5829 7.98566 12.9946 7.87778 12.3975 7.82384C13.9037 6.03483 13.6274 3.32885 11.8627 1.81853C10.0891 0.299217 7.40641 0.577907 5.90908 2.35793C4.40284 4.14693 4.67913 6.85292 6.44384 8.36324C6.7647 8.63294 7.08555 8.8487 7.40641 8.95658V10.1433L6.55079 9.33416C5.80213 8.579 4.56327 8.579 3.76113 9.33416C3.01247 10.0893 2.95899 11.285 3.70766 12.0401L6.17646 14.9619C6.28341 15.7171 6.55079 16.4273 6.92512 17.0745C7.1925 17.56 7.56684 18.0455 7.94117 18.423V19.4479C7.94117 19.7715 8.15507 19.9873 8.47593 19.9873H15.7754C16.0428 19.9873 16.3102 19.7176 16.3102 19.4479V18.0455C17.3262 16.8048 17.8699 15.2316 17.8699 13.6583V10.5208C17.9233 10.3141 17.8699 10.2062 17.7629 10.1523ZM5.96256 5.06391C5.96256 3.27491 7.41532 1.87247 9.18003 1.92641C10.9536 1.92641 12.344 3.39178 12.2905 5.17179C12.2905 6.14271 11.8627 7.01474 11.1141 7.60808V4.90209C11.0873 4.43461 10.8823 3.9941 10.5437 3.67047C10.205 3.34683 9.75044 3.16703 9.28698 3.16703C8.32441 3.11309 7.45988 3.92219 7.45988 4.90209V7.71596C6.55079 7.17656 6.01603 6.14271 5.96256 5.06391ZM16.8538 13.6134C16.9073 15.0158 16.426 16.3733 15.5169 17.4521C15.41 17.56 15.303 17.6679 15.303 17.8297V18.9624H9.07307V18.2073C9.07307 18.0455 8.96612 17.8836 8.85917 17.7758C8.48484 17.4521 8.16398 17.0745 7.8966 16.5891C7.57575 16.0497 7.36184 15.4024 7.25489 14.7461C7.25489 14.6383 7.20142 14.5304 7.14794 14.4225L4.57218 11.3389C4.41175 11.1771 4.3048 10.9613 4.3048 10.6917C4.3048 10.4759 4.41175 10.2062 4.57218 10.0444C4.94651 9.72073 5.48127 9.72073 5.85561 10.0444L7.41532 11.6176V13.2448L8.43136 12.7054V4.90209C8.48484 4.52451 8.80569 4.20087 9.2335 4.25481C9.60783 4.25481 9.98216 4.52451 9.98216 4.90209V11.1232L11.0517 11.3389V8.8487C11.1052 8.79476 11.1586 8.79476 11.2121 8.74082C11.5864 8.74082 11.9608 8.79476 12.3351 8.8487V11.6086L13.1907 11.7704V8.95658L13.8324 9.1184C14.0998 9.17234 14.3672 9.28022 14.6346 9.3881V12.0941L15.4902 12.2559V9.76568C15.9715 9.98144 16.3993 10.3051 16.7736 10.6827L16.8538 13.6134Z" fill="#45485E"/>
<path d="M15.0802 2.20703C15.9269 2.79138 16.4795 3.77129 16.4795 4.88605C16.4795 6.00081 15.918 6.98072 15.0802 7.57406" stroke="#45485E" stroke-miterlimit="10" stroke-linecap="round"/>
<path d="M14.2959 3.23828C14.8128 3.59788 15.1604 4.20021 15.1604 4.88345C15.1604 5.56669 14.8217 6.16902 14.2959 6.52862" stroke="#45485E" stroke-miterlimit="10" stroke-linecap="round"/>
<path d="M3.06594 7.56234C2.22815 6.98698 1.66666 5.99808 1.66666 4.88332C1.66666 3.76856 2.22815 2.78865 3.06594 2.19531" stroke="#45485E" stroke-miterlimit="10" stroke-linecap="round"/>
<path d="M3.85916 6.52862C3.34222 6.16902 2.99463 5.56669 2.99463 4.88345C2.99463 4.20021 3.33331 3.59788 3.85916 3.23828" stroke="#45485E" stroke-miterlimit="10" stroke-linecap="round"/>
</svg>
