<svg width="20" height="20" viewBox="0 0 20 20" fill="none" xmlns="http://www.w3.org/2000/svg">
<path d="M17.5 10H14.5158C13.8625 10 13.3333 10.5292 13.3333 11.1825V12.1508C13.3333 12.8042 13.8625 13.3333 14.5158 13.3333H17.5" stroke="#45485E" stroke-width="1.5" stroke-linecap="round" stroke-linejoin="round"/>
<path d="M15.8333 17.4987H4.16667C3.24583 17.4987 2.5 16.7529 2.5 15.832V7.4987C2.5 6.57786 3.24583 5.83203 4.16667 5.83203H15.8333C16.7542 5.83203 17.5 6.57786 17.5 7.4987V15.832C17.5 16.7529 16.7542 17.4987 15.8333 17.4987Z" stroke="#45485E" stroke-width="1.5" stroke-linecap="round" stroke-linejoin="round"/>
<path d="M11.6667 5.83229L8.9225 3.08812C8.59667 2.76229 8.06917 2.76229 7.74417 3.08812L5 5.83229" stroke="#45485E" stroke-width="1.5" stroke-linecap="round" stroke-linejoin="round"/>
<path d="M10 4.16562L11.0775 3.08812C11.4033 2.76229 11.9308 2.76229 12.2558 3.08812L15 5.83229" stroke="#45485E" stroke-width="1.5" stroke-linecap="round" stroke-linejoin="round"/>
</svg>
